<?xml version="1.0" encoding="UTF-8"?>
<svg width="40px" height="40px" viewBox="0 0 40 40" version="1.1" xmlns="http://www.w3.org/2000/svg" xmlns:xlink="http://www.w3.org/1999/xlink" preserveAspectRatio="xMinYMin none">
    <!-- Generator: Sketch 50.2 (55047) - http://www.bohemiancoding.com/sketch -->
    <title>icon/avatar_dorothy_40</title>
    <desc>Created with Sketch.</desc>
    <defs>
        <circle id="path-1" cx="20" cy="20" r="20"></circle>
        <filter x="0.0%" y="0.0%" width="100.0%" height="100.0%" filterUnits="objectBoundingBox" id="filter-3">
            <feGaussianBlur stdDeviation="0" in="SourceGraphic"></feGaussianBlur>
        </filter>
        <circle id="path-4" cx="20" cy="20" r="20"></circle>
    </defs>
    <g id="icon/avatar_dorothy_40" stroke="none" stroke-width="1" fill="none" fill-rule="evenodd">
        <g id="Group">
            <mask id="mask-2" fill="white">
                <use xlink:href="#path-1"></use>
            </mask>
            <use id="Mask" fill="#E7EEF8" opacity="0.6" xlink:href="#path-1"></use>
            <circle id="hair" fill="#CBD2DB" mask="url(#mask-2)" cx="20" cy="20" r="20"></circle>
            <path d="M20,44 C29.9411255,44 36.6666667,35.9411255 36.6666667,26 C36.6666667,22.1562064 33.1345809,17.7586025 29.3408407,17.0114158 C25.5471005,16.2642291 14.0254242,16.1216542 9.80410593,17.0114158 C5.58278769,17.9011774 3.33333333,22.7016524 3.33333333,26 C3.33333333,35.9411255 10.0588745,44 20,44 Z" id="face" fill="#F6F7F8" mask="url(#mask-2)"></path>
            <g id="expression" mask="url(#mask-2)">
                <g transform="translate(7.333333, 24.000000)">
                    <rect id="mouth" fill="#B2BCC8" x="11.4166667" y="8.66666667" width="2.5" height="1" rx="0.5"></rect>
                    <path d="M4,12 C2.15905083,12 0.666666667,10.5076158 0.666666667,8.66666667 C0.666666667,6.8257175 2.15905083,5.33333333 4,5.33333333 C5.84094917,5.33333333 7.33333333,6.8257175 7.33333333,8.66666667 C7.33333333,10.5076158 5.84094917,12 4,12 Z M21.3333333,12 C19.4923842,12 18,10.5076158 18,8.66666667 C18,6.8257175 19.4923842,5.33333333 21.3333333,5.33333333 C23.1742825,5.33333333 24.6666667,6.8257175 24.6666667,8.66666667 C24.6666667,10.5076158 23.1742825,12 21.3333333,12 Z" id="Combined-Shape" fill-opacity="0.1" fill="#F695FF" filter="url(#filter-3)"></path>
                    <path d="M16.5,4 L16.8333333,4 C17.1094757,4 17.3333333,4.22385763 17.3333333,4.5 L17.3333333,5.5 C17.3333333,5.77614237 17.1094757,6 16.8333333,6 L16.5,6 C16.2238576,6 16,5.77614237 16,5.5 L16,4.5 C16,4.22385763 16.2238576,4 16.5,4 Z M8.5,4 L8.83333333,4 C9.10947571,4 9.33333333,4.22385763 9.33333333,4.5 L9.33333333,5.5 C9.33333333,5.77614237 9.10947571,6 8.83333333,6 L8.5,6 C8.22385763,6 8,5.77614237 8,5.5 L8,4.5 C8,4.22385763 8.22385763,4 8.5,4 Z" id="eye" fill="#B2BCC8"></path>
                    <path d="M15.3732082,1.22195748 C15.5151102,0.877633596 15.8283297,0.0606892904 16.7272148,0.0606892904 C17.6260999,0.0606892904 18.0385751,0.903299908 18.0980065,1.12238793 C18.1552291,1.33333333 18.0583444,1.45542131 17.9493421,1.50694747 C17.8577516,1.55024292 17.6830462,1.57963933 17.5793657,1.38988423 C17.4949826,1.23544711 17.4383558,1.12238793 17.3338636,0.981140137 C17.2293714,0.839892343 17.0541014,0.638809899 16.724163,0.638809899 C16.3942245,0.638809899 16.1644834,0.877633596 16.0714807,1.02455009 C15.9784781,1.17146658 15.9286611,1.34530581 15.8737195,1.45552572 C15.818778,1.56574562 15.6825433,1.74595572 15.5151102,1.68071748 C15.3476772,1.61547924 15.2850842,1.43578957 15.3732082,1.22195748 Z" id="eyebrow-right" fill="#B2BCC8"></path>
                    <path d="M7.37320825,1.22195748 C7.51511023,0.877633596 7.82832971,0.0606892904 8.7272148,0.0606892904 C9.6260999,0.0606892904 10.0385751,0.903299908 10.0980065,1.12238793 C10.1552291,1.33333333 10.0583444,1.45542131 9.94934208,1.50694747 C9.8577516,1.55024292 9.68304621,1.57963933 9.57936567,1.38988423 C9.49498257,1.23544711 9.43835576,1.12238793 9.33386357,0.981140137 C9.22937138,0.839892343 9.05410142,0.638809899 8.72416296,0.638809899 C8.39422449,0.638809899 8.16448344,0.877633596 8.07148075,1.02455009 C7.97847805,1.17146658 7.92866105,1.34530581 7.87371952,1.45552572 C7.81877799,1.56574562 7.68254329,1.74595572 7.51511023,1.68071748 C7.34767717,1.61547924 7.28508424,1.43578957 7.37320825,1.22195748 Z" id="eyebrow-left" fill="#B2BCC8" transform="translate(8.724163, 0.877634) scale(-1, 1) translate(-8.724163, -0.877634) "></path>
                </g>
            </g>
            <mask id="mask-5" fill="white">
                <use xlink:href="#path-4"></use>
            </mask>
            <g id="border" opacity="0.6"></g>
        </g>
    </g>
</svg>