<?xml version="1.0" encoding="UTF-8"?>
<svg width="40px" height="40px" viewBox="0 0 40 40" version="1.1" xmlns="http://www.w3.org/2000/svg" xmlns:xlink="http://www.w3.org/1999/xlink">
    <!-- Generator: Sketch 50.2 (55047) - http://www.bohemiancoding.com/sketch -->
    <title>icon/avatar_micky_40</title>
    <desc>Created with Sketch.</desc>
    <defs>
        <circle id="path-1" cx="20" cy="20" r="20"></circle>
        <circle id="path-3" cx="20" cy="20" r="20"></circle>
    </defs>
    <g id="icon/avatar_micky_40" stroke="none" stroke-width="1" fill="none" fill-rule="evenodd">
        <g id="Group">
            <mask id="mask-2" fill="white">
                <use xlink:href="#path-1"></use>
            </mask>
            <use id="Mask" fill="#E7EEF8" opacity="0.6" xlink:href="#path-1"></use>
            <circle id="hair" fill="#CBD2DB" mask="url(#mask-2)" cx="20" cy="20" r="20"></circle>
            <path d="M20,46.6666667 C29.6345443,46.6666667 42.786867,28.8744054 43.4711227,18.6808277 C43.486253,18.4554277 40.3595525,14.0243003 40.5515271,16.4320069 C40.5687579,16.6481124 39.5789099,17.9887596 37.7441582,18.792401 C35.9094065,19.5960425 34.6757986,19.7991742 33.4401126,20.0437773 C30.3797897,20.6495659 26.0180929,20.110747 22.3660066,20.110747 C16.6833146,20.110747 11.397186,20.247366 7.43597792,21.7164885 C4.46757133,22.8174034 2,24.4082333 2,28.6666667 C2,38.6077922 10.0588745,46.6666667 20,46.6666667 Z" id="face" fill="#F6F7F8" mask="url(#mask-2)"></path>
            <g id="expression" mask="url(#mask-2)" fill="#B2BCC8">
                <g transform="translate(14.000000, 24.000000)">
                    <rect id="mouth" x="4.66666667" y="8" width="2.66666667" height="1.33333333" rx="0.666666667"></rect>
                    <path d="M9.5,4 L10.5,4 C10.7761424,4 11,4.22385763 11,4.5 L11,6.16666667 C11,6.44280904 10.7761424,6.66666667 10.5,6.66666667 L9.5,6.66666667 C9.22385763,6.66666667 9,6.44280904 9,6.16666667 L9,4.5 C9,4.22385763 9.22385763,4 9.5,4 Z M1.5,4 L2.5,4 C2.77614237,4 3,4.22385763 3,4.5 L3,6.16666667 C3,6.44280904 2.77614237,6.66666667 2.5,6.66666667 L1.5,6.66666667 C1.22385763,6.66666667 1,6.44280904 1,6.16666667 L1,4.5 C1,4.22385763 1.22385763,4 1.5,4 Z" id="eye"></path>
                    <path d="M9.22794158,-0.0700929177 L10.8882661,0.0751666536 C11.1633576,0.0992340474 11.3668529,0.341750304 11.3427856,0.616841874 L11.3137336,0.948906773 C11.2896662,1.22399834 11.04715,1.42749364 10.7720584,1.40342625 L9.11173392,1.25816668 C8.83664235,1.23409929 8.63314705,0.991583029 8.65721445,0.716491459 L8.68626636,0.38442656 C8.71033375,0.10933499 8.95285001,-0.0941603115 9.22794158,-0.0700929177 Z M1.11173392,0.0751666536 L2.77205842,-0.0700929177 C3.04714999,-0.0941603115 3.28966625,0.10933499 3.31373364,0.38442656 L3.34278555,0.716491459 C3.36685295,0.991583029 3.16335765,1.23409929 2.88826608,1.25816668 L1.22794158,1.40342625 C0.95285001,1.42749364 0.710333753,1.22399834 0.68626636,0.948906773 L0.657214445,0.616841874 C0.633147052,0.341750304 0.836642353,0.0992340474 1.11173392,0.0751666536 Z" id="eyebrow"></path>
                </g>
            </g>
            <mask id="mask-4" fill="white">
                <use xlink:href="#path-3"></use>
            </mask>
            <g id="border" opacity="0.6"></g>
        </g>
    </g>
</svg>