<?xml version="1.0" encoding="UTF-8"?>
<svg width="40px" height="40px" viewBox="0 0 40 40" version="1.1" xmlns="http://www.w3.org/2000/svg" xmlns:xlink="http://www.w3.org/1999/xlink">
    <!-- Generator: Sketch 50.2 (55047) - http://www.bohemiancoding.com/sketch -->
    <title>icon/avatar_ryan_40</title>
    <desc>Created with Sketch.</desc>
    <defs>
        <circle id="path-1" cx="20" cy="20" r="20"></circle>
        <circle id="path-3" cx="20" cy="20" r="20"></circle>
    </defs>
    <g id="icon/avatar_ryan_40" stroke="none" stroke-width="1" fill="none" fill-rule="evenodd">
        <g id="Group">
            <mask id="mask-2" fill="white">
                <use xlink:href="#path-1"></use>
            </mask>
            <use id="Mask" fill="#E7EEF8" opacity="0.6" xlink:href="#path-1"></use>
            <circle id="hair" fill="#CBD2DB" mask="url(#mask-2)" cx="20" cy="20" r="20"></circle>
            <path d="M20.6666667,46.6666667 C29.4734097,46.6666667 36.6126855,39.5273908 36.6126855,30.7206478 C36.6126855,21.9139048 29.4734097,21.8617485 20.6666667,21.8617485 C11.8599236,21.8617485 4.72064781,21.9139048 4.72064781,30.7206478 C4.72064781,39.5273908 11.8599236,46.6666667 20.6666667,46.6666667 Z" id="face" fill="#F6F7F8" mask="url(#mask-2)"></path>
            <g id="expression" mask="url(#mask-2)" fill="#B2BCC8">
                <g transform="translate(10.666667, 25.333333)">
                    <rect id="mouth" x="9.50498382" y="8.10957022" width="1.33333333" height="2.66666667" rx="0.666666667"></rect>
                    <rect id="eye-right" x="13.3333333" y="2.66666667" width="1.33333333" height="2.66666667" rx="0.666666667"></rect>
                    <rect id="eye-left" x="5.33333333" y="2.66666667" width="1.33333333" height="2.66666667" rx="0.666666667"></rect>
                    <path d="M9.28607409,4 L10.7139259,4 C11.0374123,1.73847057 12.9823521,0 15.3333333,0 C17.9106622,0 20,2.08933783 20,4.66666667 C20,7.2439955 17.9106622,9.33333333 15.3333333,9.33333333 C12.7560045,9.33333333 10.6666667,7.2439955 10.6666667,4.66666667 L9.33333333,4.66666667 C9.33333333,7.2439955 7.2439955,9.33333333 4.66666667,9.33333333 C2.08933783,9.33333333 0,7.2439955 0,4.66666667 C0,2.08933783 2.08933783,0 4.66666667,0 C7.01764794,0 8.96258765,1.73847057 9.28607409,4 Z M4.66666667,8.66666667 C6.87580567,8.66666667 8.66666667,6.87580567 8.66666667,4.66666667 C8.66666667,2.45752767 6.87580567,0.666666667 4.66666667,0.666666667 C2.45752767,0.666666667 0.666666667,2.45752767 0.666666667,4.66666667 C0.666666667,6.87580567 2.45752767,8.66666667 4.66666667,8.66666667 Z M15.3333333,8.66666667 C17.5424723,8.66666667 19.3333333,6.87580567 19.3333333,4.66666667 C19.3333333,2.45752767 17.5424723,0.666666667 15.3333333,0.666666667 C13.1241943,0.666666667 11.3333333,2.45752767 11.3333333,4.66666667 C11.3333333,6.87580567 13.1241943,8.66666667 15.3333333,8.66666667 Z" id="glasses"></path>
                </g>
            </g>
            <mask id="mask-4" fill="white">
                <use xlink:href="#path-3"></use>
            </mask>
            <g id="border" opacity="0.6"></g>
        </g>
    </g>
</svg>