<?xml version="1.0" encoding="UTF-8"?>
<svg width="40px" height="40px" viewBox="0 0 40 40" version="1.1" xmlns="http://www.w3.org/2000/svg" xmlns:xlink="http://www.w3.org/1999/xlink">
    <!-- Generator: Sketch 50.2 (55047) - http://www.bohemiancoding.com/sketch -->
    <title>icon/avatar_sammy_40</title>
    <desc>Created with Sketch.</desc>
    <defs>
        <circle id="path-1" cx="20" cy="20" r="20"></circle>
        <filter x="0.0%" y="0.0%" width="100.0%" height="100.0%" filterUnits="objectBoundingBox" id="filter-3">
            <feGaussianBlur stdDeviation="0" in="SourceGraphic"></feGaussianBlur>
        </filter>
        <filter x="0.0%" y="0.0%" width="100.0%" height="100.0%" filterUnits="objectBoundingBox" id="filter-4">
            <feGaussianBlur stdDeviation="0" in="SourceGraphic"></feGaussianBlur>
        </filter>
        <circle id="path-5" cx="20" cy="20" r="20"></circle>
    </defs>
    <g id="icon/avatar_sammy_40" stroke="none" stroke-width="1" fill="none" fill-rule="evenodd">
        <g id="Group">
            <mask id="mask-2" fill="white">
                <use xlink:href="#path-1"></use>
            </mask>
            <use id="Mask" fill="#E7EEF8" opacity="0.6" xlink:href="#path-1"></use>
            <circle id="hair" fill="#CBD2DB" mask="url(#mask-2)" cx="20" cy="20" r="20"></circle>
            <path d="M20,42.2504557 C29.9411255,42.2504557 35.3333333,38.6077922 35.3333333,28.6666667 C35.3333333,18.7255412 29.9411255,16 20,16 C10.0588745,16 4.66666667,18.7255412 4.66666667,28.6666667 C4.66666667,38.6077922 10.0588745,42.2504557 20,42.2504557 Z" id="face" fill="#F6F7F8" mask="url(#mask-2)"></path>
            <g id="expression" mask="url(#mask-2)">
                <g transform="translate(8.666667, 28.000000)">
                    <rect id="mouth" fill="#B2BCC8" x="9.33333333" y="4" width="4" height="1.33333333" rx="0.666666667"></rect>
                    <rect id="eye-right" fill="#B2BCC8" x="14.6666667" y="0" width="1.33333333" height="2.66666667" rx="0.666666667"></rect>
                    <rect id="eye-left" fill="#B2BCC8" x="6.66666667" y="0" width="1.33333333" height="2.66666667" rx="0.666666667"></rect>
                    <circle id="blush-left" fill-opacity="0.07" fill="#FF8473" filter="url(#filter-3)" cx="4.66666667" cy="6" r="4.66666667"></circle>
                    <circle id="blush-right" fill-opacity="0.07" fill="#FF8473" filter="url(#filter-4)" cx="18" cy="6" r="4.66666667"></circle>
                </g>
            </g>
            <mask id="mask-6" fill="white">
                <use xlink:href="#path-5"></use>
            </mask>
            <g id="border" opacity="0.6"></g>
        </g>
    </g>
</svg>