<?xml version="1.0" encoding="UTF-8"?>
<svg width="80px" height="80px" viewBox="0 0 80 80" version="1.1" xmlns="http://www.w3.org/2000/svg" xmlns:xlink="http://www.w3.org/1999/xlink" preserveAspectRatio="xMinYMin none">
    <!-- Generator: Sketch 50.2 (55047) - http://www.bohemiancoding.com/sketch -->
    <title>icon/avatar_host</title>
    <desc>Created with Sketch.</desc>
    <defs>
        <filter x="0.0%" y="0.0%" width="100.0%" height="100.0%" filterUnits="objectBoundingBox" id="filter-1">
            <feGaussianBlur stdDeviation="0" in="SourceGraphic"></feGaussianBlur>
        </filter>
        <circle id="path-2" cx="28.8789677" cy="29.8789677" r="29.8789677"></circle>
    </defs>
    <g id="icon/avatar_host" stroke="none" stroke-width="1" fill="none" fill-rule="evenodd">
        <rect id="bg" fill-opacity="0.25999999" fill="#F8E71C" x="0" y="-0.0521849235" width="80" height="80" rx="6"></rect>
        <g id="icon" transform="translate(-0.500000, 7.000000)">
            <path d="M68.3678683,47.8696042 C67.9321866,49.3589333 67.4450769,50.7457642 66.9162427,52.0099079 C66.0021843,54.1895464 64.0289352,57.9941349 62.7907839,59.3467997 C62.2182845,59.9819776 61.5778614,60.5154338 60.8607817,60.9456154 C59.4858127,61.7725891 57.8042169,62.2097592 55.6694733,62.2097592 L25.8016325,61.2097592 C23.5727661,61.2097592 21.8397424,60.7314345 20.4308116,59.8361288 C19.7816555,59.4261362 19.2101264,58.9276225 18.6803218,58.3467997 C17.4421705,56.9941349 15.4679512,53.1895464 14.5548631,51.0099079 C14.0250585,49.7457642 13.5389192,48.3589333 13.1032374,46.8696042 C13.0605426,46.7259515 13.0178477,46.5892874 12.9838859,46.4456347 C7.9885858,28.8501205 9.47417329,18.3855163 20.7970475,8.98985339 C25.4420555,5.13607861 31.1883972,1.74665146 40.7355529,1.74665146 C48.3012783,1.74665146 53.4838536,3.87814688 57.6165232,6.68675123 C58.7013611,7.41122673 59.708572,8.19005729 60.6740583,8.98985339 C61.0583121,9.31054833 61.4338329,9.65919731 61.792858,10.0280353 C72.0900849,20.4968227 73.3117405,30.4511324 68.4872199,47.4316576 C68.4532581,47.5892874 68.4105632,47.7259515 68.3678683,47.8696042 Z" id="hair" fill="#523820"></path>
            <g id="body" transform="translate(-0.000000, 45.260869)">
                <path d="M40.5865979,37.425262 C54.129436,37.425262 69.3551893,36.5557734 69.3551893,31.0477145 C69.3551893,25.5396557 55.0251177,8.77610791 40.6103342,8.29234455 C26.1955507,7.80858119 11.6448107,25.5396557 11.6448107,31.0477145 C11.6448107,36.5557734 27.0437597,37.425262 40.5865979,37.425262 Z" fill="#FFC850"></path>
                <path d="M40.5,36.0671421 C54.2418286,36.0671421 69.7791704,36.3336448 69.7791704,31.4321004 C69.7791704,26.530556 54.2418286,10.6272054 40.5,10.6272054 C26.7581714,10.6272054 11.2208296,26.530556 11.2208296,31.4321004 C11.2208296,36.3336448 26.7581714,36.0671421 40.5,36.0671421 Z" id="body-shadow" fill-opacity="0.0500000045" fill="#000000"></path>
                <path d="M57.0128823,29.275984 C59.4720207,27.6712262 64.3763195,22.1218085 64.0199992,21.5177852 C62.8956576,19.611836 60.9123046,17.6913144 56.550442,14.3654131 C53.6723962,12.1709157 53.1012135,22.8859941 40.4240765,22.371532 C27.7469394,21.8570699 28.8393179,10.8888605 24.1265247,14.2983455 C19.4137315,17.7078304 19.3030464,18.0434108 18.7390571,18.6742259 C18.1750678,19.3050411 16.8810025,20.3898509 17.425186,21.4833386 C19.0335227,24.7151459 22.4482997,28.0979994 24.3513218,29.3559214 C30.8260097,33.635773 52.3889713,32.2934057 57.0128823,29.275984 Z" fill-opacity="0.479999989" fill="#F9F9F9"></path>
            </g>
            <g id="head" transform="translate(11.497730, 0.732980)">
                <circle id="hair" fill="#523820" cx="29.1168454" cy="30.1168454" r="30.1168454"></circle>
                <path d="M29.5978435,59.1494341 C41.3814379,59.1849379 52.8345397,53.4337042 52.8345397,39.0633661 C52.8345397,33.506992 48.6230067,24.5530414 43.1389869,23.4729499 C38.0576205,22.4721619 16.5960659,23.1956366 16.148031,23.2900726 C10.0459282,24.5762625 5.77394746,35.6937819 5.77394746,40.4616897 C5.77394746,54.8320278 17.8142491,59.1139302 29.5978435,59.1494341 Z" id="face" fill="#FACA99"></path>
                <path d="M29.3433937,59.8039447 C43.3748327,59.8039447 52.867623,48.429216 52.867623,34.3977771 C52.867623,28.9724402 47.8822473,25.5883331 42.5275584,24.5337136 C37.1728696,23.4790941 20.9105563,23.2778562 14.9523608,24.5337136 C8.99416525,25.7895709 5.81916446,29.742312 5.81916446,34.3977771 C5.81916446,48.429216 15.3119548,59.8039447 29.3433937,59.8039447 Z" id="face-shadow" fill-opacity="0.540000021" fill="#FFDBB7"></path>
                <path d="M30.1196458,30.2419546 C30.1778689,30.5076734 31.0628176,31.1676393 31.3797259,31.4193439 C32.1542279,32.0344924 33.9372846,32.6602796 33.6770908,32.7117256 C33.4168971,32.7631716 31.1433174,33.1242817 29.0837828,32.3881675 C25.0294982,30.9390942 22.6317373,29.0725401 20.3177327,26.6072446 C16.6521391,32.263817 10.718821,40.1663696 6.11921095,40.2720251 C-0.170674249,30.6325598 8.53783897,12.0912884 29.6451497,12.776612 C50.7524604,13.4619355 55.9862754,28.3824385 53.6259907,35.1652026 C49.3198192,36.5699055 33.9977071,33.5949165 30.1196458,30.2419546 Z" id="fore-head" fill="#523820" transform="translate(29.132360, 26.515077) rotate(5.000000) translate(-29.132360, -26.515077) "></path>
                <g id="expression" transform="translate(10.955621, 35.854761)">
                    <path d="M16.9404165,20.2452109 C17.7136515,20.4294094 18.2171082,20.5215086 18.4507865,20.5215086 C18.6756298,20.5215086 19.1236879,20.436242 19.7949609,20.2657087 L19.7949684,20.2657384 C20.0132527,20.2102845 20.2351613,20.3422845 20.2906152,20.5605688 C20.3089965,20.6329232 20.3071635,20.7089352 20.285316,20.7803196 C20.285316,20.7803196 20.285316,20.7803196 20.285316,20.7803196 C20.2394435,20.930203 19.9822812,21.6230813 18.3572773,21.6041118 C16.7322734,21.5851423 16.5803443,20.8940118 16.5171144,20.7206599 C16.5171144,20.7206599 16.5171144,20.7206599 16.5171144,20.7206599 L16.5171144,20.7206599 C16.4487148,20.5331346 16.5452853,20.3256666 16.7328105,20.257267 C16.7993374,20.2330014 16.8715269,20.2288135 16.9404135,20.2452235 Z" id="lip" fill-opacity="0.210000008" fill="#FF5862"></path>
                    <g id="mouth" transform="translate(14.632866, 15.457196)">
                        <path d="M0.900233451,-1.49757234e-12 L6.39206531,-3.64488477e-05 C6.66822781,-3.64488477e-05 6.89210176,0.223837495 6.89210176,0.5 C6.89210176,0.502920746 6.89207616,0.505841436 6.89202499,0.508761733 C6.88086368,1.14564507 6.8548557,1.56101868 6.81400105,1.75488256 C6.73768405,2.11702271 6.35498712,3.87958982 3.65150452,3.83375666 C0.948021908,3.78792351 0.660671185,2.17921355 0.555477059,1.76037011 C0.500596376,1.54185587 0.449377936,1.13498978 0.401821738,0.539771829 L0.401871409,0.539767861 C0.379880706,0.264530105 0.585178005,0.023578832 0.86041576,0.00158812888 C0.873661944,0.000529797027 0.886945056,-1.49759638e-12 0.900233451,-1.49759882e-12 Z" fill="#212121"></path>
                        <path d="M2.12704534,5.89965447e-05 L5.16679125,-2.45237503e-05 C5.44297975,-2.45237503e-05 5.66687477,0.223870495 5.66687477,0.500058997 C5.66687477,0.513149389 5.66636078,0.526234733 5.66533399,0.539284793 C5.653513,0.689524298 5.6393812,0.798184283 5.62293858,0.865264748 C5.57489892,1.06125067 5.35118192,1.73165357 3.64940663,1.70684921 C1.94763133,1.68204485 1.74292997,1.0139274 1.67671287,0.787254334 C1.66048049,0.731687949 1.64583069,0.661075046 1.63276349,0.575415623 L1.63280824,0.575408795 C1.59116869,0.302449182 1.77869066,0.0474161707 2.05165027,0.00577662235 C2.0766016,0.00197033648 2.10180535,5.89965447e-05 2.12704534,5.89965447e-05 Z" id="tooth" fill="#FFFFFF"></path>
                    </g>
                    <path d="M5.21213642,17.7455784 C2.51205669,17.7455784 0.323209589,15.5567313 0.323209589,12.8566515 C0.323209589,10.1565718 2.51205669,7.96772471 5.21213642,7.96772471 C7.91221615,7.96772471 10.1010633,10.1565718 10.1010633,12.8566515 C10.1010633,15.5567313 7.91221615,17.7455784 5.21213642,17.7455784 Z M30.6345559,17.7455784 C27.9344762,17.7455784 25.7456291,15.5567313 25.7456291,12.8566515 C25.7456291,10.1565718 27.9344762,7.96772471 30.6345559,7.96772471 C33.3346357,7.96772471 35.5234828,10.1565718 35.5234828,12.8566515 C35.5234828,15.5567313 33.3346357,17.7455784 30.6345559,17.7455784 Z" id="blush" fill-opacity="0.219999999" fill="#FEA36E" filter="url(#filter-1)"></path>
                    <path d="M16.7646599,11.6719562 C16.8674257,11.5223907 17.057458,11.0400039 17.9921684,11.0354355 C18.9268788,11.0308671 19.3262106,11.789973 19.3930429,12.0363436 C19.4573913,12.2735577 19.4182179,12.5728253 19.2838935,12.6301394 C19.1495691,12.6874534 18.9245598,12.6575452 18.8806026,12.4778783 C18.836528,12.2977315 18.8398042,12.0833058 18.6301725,11.9033463 C18.4205408,11.7233867 18.28035,11.6812231 17.9873059,11.6426315 C17.6942618,11.6040398 17.435472,11.7555829 17.2670194,11.977138 C17.1755355,12.097461 17.119457,12.2538261 17.0987839,12.4462334 L17.0987667,12.4462316 C17.0841232,12.5825206 16.9617682,12.6811338 16.8254792,12.6664903 C16.7709446,12.6606308 16.719887,12.6368719 16.6802836,12.5989256 C16.6802836,12.5989256 16.6802836,12.5989256 16.6802836,12.5989256 C16.473181,12.4004885 16.6053225,11.903856 16.7646599,11.6719562 Z" id="nose" fill-opacity="0.370000005" fill="#5C310A" transform="translate(17.998607, 11.851673) rotate(-90.000000) translate(-17.998607, -11.851673) "></path>
                    <path d="M23.4031741,5.97579353 L24.3951053,5.97579353 C24.6712477,5.97579353 24.8951053,6.19965116 24.8951053,6.47579353 L24.8951053,8.4636903 C24.8951053,8.73983267 24.6712477,8.9636903 24.3951053,8.9636903 L23.4031741,8.9636903 C23.1270318,8.9636903 22.9031741,8.73983267 22.9031741,8.4636903 L22.9031741,6.47579353 C22.9031741,6.19965116 23.1270318,5.97579353 23.4031741,5.97579353 Z M11.4515871,5.97579353 L12.4435182,5.97579353 C12.7196606,5.97579353 12.9435182,6.19965116 12.9435182,6.47579353 L12.9435182,8.4636903 C12.9435182,8.73983267 12.7196606,8.9636903 12.4435182,8.9636903 L11.4515871,8.9636903 C11.1754447,8.9636903 10.9515871,8.73983267 10.9515871,8.4636903 L10.9515871,6.47579353 C10.9515871,6.19965116 11.1754447,5.97579353 11.4515871,5.97579353 Z" id="eye" fill="#212121"></path>
                    <path d="M21.9667796,1.8255414 C22.1787738,1.31113929 22.6467076,0.0906666672 23.9895955,0.0906666672 C25.3324834,0.0906666672 25.9487001,1.34948344 26.0374875,1.67678963 C26.1229751,1.99193118 25.9782344,2.17432432 25.8153906,2.25130173 C25.6785591,2.31598291 25.4175583,2.35989962 25.2626649,2.0764153 C25.1366009,1.84569422 25.0520034,1.67678963 24.8958974,1.46577272 C24.7397915,1.25475581 24.4779472,0.954349016 23.9850362,0.954349016 C23.4921252,0.954349016 23.1489039,1.31113929 23.0099627,1.53062495 C22.8710214,1.75011061 22.7965974,2.00981744 22.7145176,2.17448029 C22.6324378,2.33914314 22.4289102,2.60836772 22.1787738,2.51090516 C21.9286375,2.41344259 21.8351269,2.14499551 21.9667796,1.8255414 Z" id="eyebrow-right" fill="#212121"></path>
                    <path d="M10.0151925,1.8255414 C10.2271868,1.31113929 10.6951205,0.0906666672 12.0380084,0.0906666672 C13.3808964,0.0906666672 13.997113,1.34948344 14.0859005,1.67678963 C14.1713881,1.99193118 14.0266474,2.17432432 13.8638035,2.25130173 C13.7269721,2.31598291 13.4659712,2.35989962 13.3110779,2.0764153 C13.1850139,1.84569422 13.1004163,1.67678963 12.9443104,1.46577272 C12.7882044,1.25475581 12.5263602,0.954349016 12.0334491,0.954349016 C11.5405381,0.954349016 11.1973168,1.31113929 11.0583756,1.53062495 C10.9194344,1.75011061 10.8450104,2.00981744 10.7629306,2.17448029 C10.6808507,2.33914314 10.4773231,2.60836772 10.2271868,2.51090516 C9.97705043,2.41344259 9.88353982,2.14499551 10.0151925,1.8255414 Z" id="eyebrow-left" fill="#212121" transform="translate(12.033449, 1.311139) scale(-1, 1) translate(-12.033449, -1.311139) "></path>
                </g>
                <circle id="left-shadow" stroke-opacity="0.05" stroke="#000000" stroke-width="0.5" cx="20.0626751" cy="45.9552341" r="6.82130795"></circle>
                <circle id="right-shadow" stroke-opacity="0.05" stroke="#000000" stroke-width="0.5" cx="37.9302977" cy="45.9552341" r="6.82130795"></circle>
                <path d="M28.0746947,43.9830262 L30.4003358,43.9830262 C30.9272206,40.2995166 34.0950786,37.4679492 37.9242846,37.4679492 C42.1221586,37.4679492 45.5252078,40.8709985 45.5252078,45.0688724 C45.5252078,49.2667464 42.1221586,52.6697956 37.9242846,52.6697956 C33.7264107,52.6697956 30.3233614,49.2667464 30.3233614,45.0688724 L28.1516691,45.0688724 C28.1516691,49.2667464 24.7486199,52.6697956 20.5507459,52.6697956 C16.352872,52.6697956 12.9498227,49.2667464 12.9498227,45.0688724 C12.9498227,40.8709985 16.352872,37.4679492 20.5507459,37.4679492 C24.3799519,37.4679492 27.5478099,40.2995166 28.0746947,43.9830262 Z M20.5507459,51.2538187 C23.9665974,51.2538187 26.7356922,48.4847239 26.7356922,45.0688724 C26.7356922,41.6530209 23.9665974,38.8839261 20.5507459,38.8839261 C17.1348944,38.8839261 14.3657996,41.6530209 14.3657996,45.0688724 C14.3657996,48.4847239 17.1348944,51.2538187 20.5507459,51.2538187 Z M37.9242846,51.2538187 C41.3401361,51.2538187 44.1092309,48.4847239 44.1092309,45.0688724 C44.1092309,41.6530209 41.3401361,38.8839261 37.9242846,38.8839261 C34.5084331,38.8839261 31.7393383,41.6530209 31.7393383,45.0688724 C31.7393383,48.4847239 34.5084331,51.2538187 37.9242846,51.2538187 Z" id="glasses" fill="#0C8F83"></path>
                <mask id="mask-3" fill="white">
                    <use xlink:href="#path-2"></use>
                </mask>
                <g id="border" opacity="0.6"></g>
            </g>
            <g id="headphone" transform="translate(5.000000, 1.003388)">
                <path d="M42.133247,58.6840792 C42.0018898,58.2535474 42.3277568,57.8179266 42.8620271,57.7120748 C56.8515734,54.9344832 62.1955397,44.5833999 62.2473248,44.4785659 C62.453202,44.0683902 63.0354683,43.8689003 63.5444776,44.0348027 C64.0547499,44.200705 64.3023078,44.6678778 64.0964306,45.0790712 C63.8690815,45.536066 58.344499,56.2932537 43.3394602,59.271353 L43.0994806,59.2947626 C42.6523607,59.2947626 42.2443955,59.0504892 42.133247,58.6840792 Z" id="Fill-113" fill="#FF6A56"></path>
                <path d="M43.0994806,60.098829 C42.2039778,60.098829 41.3893103,59.6082467 41.1657504,58.8764445 C40.9017729,58.0143631 41.5547699,57.1441393 42.6245736,56.9324357 C44.5014665,56.558901 46.3215222,56.0245531 48.0329555,55.3426233 C49.0193979,54.9497503 50.2155066,55.2754481 50.7030441,56.0703543 C51.1905815,56.8652605 50.7876684,57.8291225 49.799963,58.2230132 C47.8296044,59.0077414 45.7354668,59.6235138 43.5781767,60.05201 C43.4177693,60.0835619 43.2573619,60.098829 43.0994806,60.098829" id="Fill-114" fill="#3B3940"></path>
                <path d="M3.29393015,21.2594593 L2.93827657,35.4864988 C2.93827657,35.9908084 3.52054281,36.4015624 4.23542934,36.4015624 C4.95031588,36.4015624 5.53131906,35.9908084 5.53131906,35.4864988 C5.91166619,25.8914375 6.10476875,21.0183154 6.11062677,20.8671324 C6.11941379,20.640358 6.25870204,15.2028902 15.192577,9.11801256 C22.0414215,4.85286392 27.142397,3.4461488 35.2440744,3.34743195 C43.3457518,3.2487151 49.7065354,5.1136498 55.4196937,8.98227689 C59.7037147,11.8831732 64.5422921,16.9641875 64.8910674,21.5414556 L65.1245437,35.4954088 C65.1245437,35.9997185 65.70681,36.4104724 66.4204335,36.4104724 C67.13532,36.4104724 67.7175862,35.9997185 67.7175862,35.4954088 L67.7175862,21.6243883 C67.7175862,10.8556846 51.7589542,0.0967339306 35.3279314,0.0967339306 C18.8969086,0.0967339306 3.29393015,10.4907557 3.29393015,21.2594593 Z" id="Fill-115" fill="#FF6A56"></path>
                <path d="M3.68346643,47.4735974 C2.25874556,47.4735974 1.04495412,46.5952312 0.918649079,45.4298437 L0.134294775,38.2085127 C0.000411431068,36.9759501 1.1321046,35.8899515 2.6603956,35.7820641 C4.18742354,35.6741767 5.53762443,36.5861305 5.67150777,37.8176754 L6.45459903,45.0400242 C6.58848237,46.271569 5.45805225,47.3575676 3.92849821,47.465455 L3.68346643,47.4735974" id="Fill-116" fill="#D14C3A"></path>
                <path d="M5.94072366,50.7499138 C4.51600279,50.7499138 3.3034744,49.8715475 3.17590631,48.7061601 L1.6198282,34.3754567 C1.48594486,33.1428941 2.61763803,32.0579133 4.14592902,31.9490081 C5.66537867,31.8462097 7.02189481,32.7530745 7.1570412,33.9856371 L8.71311931,48.3163405 C8.8457396,49.5478853 7.71530948,50.6338839 6.18575543,50.7417713 L5.94072366,50.7499138" id="Fill-117" fill="#FF6A56"></path>
                <path d="M66.963555,47.4735974 L66.7185233,47.465455 C65.1889692,47.3575676 64.0585391,46.271569 64.1924224,45.0400242 L64.9767767,37.8176754 C65.1106601,36.5861305 66.4684393,35.6731589 67.9866259,35.7820641 C69.5149169,35.8899515 70.64661,36.9759501 70.5127267,38.2085127 L69.7283724,45.4298437 C69.6020673,46.5952312 68.3882759,47.4735974 66.963555,47.4735974" id="Fill-118" fill="#D14C3A"></path>
                <path d="M64.7728114,50.7499138 L64.5277796,50.7417713 C62.9982256,50.6338839 61.8677954,49.5478853 62.0004157,48.3163405 L63.5564938,33.9856371 C63.6903772,32.7530745 65.0367889,31.8451919 66.567606,31.9490081 C68.095897,32.0579133 69.2275902,33.1428941 69.0937068,34.3754567 L67.5376287,48.7061601 C67.4100606,49.8715475 66.1975322,50.7499138 64.7728114,50.7499138" id="Fill-119" fill="#FF6A56"></path>
            </g>
        </g>
    </g>
</svg>