<?xml version="1.0" encoding="UTF-8"?>
<svg width="40px" height="40px" viewBox="0 0 40 40" version="1.1" xmlns="http://www.w3.org/2000/svg" xmlns:xlink="http://www.w3.org/1999/xlink">
    <!-- Generator: Sketch 50.2 (55047) - http://www.bohemiancoding.com/sketch -->
    <title>icon/avatar_victor_40</title>
    <desc>Created with Sketch.</desc>
    <defs>
        <circle id="path-1" cx="20" cy="20" r="20"></circle>
        <circle id="path-3" cx="20" cy="20" r="20"></circle>
    </defs>
    <g id="icon/avatar_victor_40" stroke="none" stroke-width="1" fill="none" fill-rule="evenodd">
        <g id="Group">
            <mask id="mask-2" fill="white">
                <use xlink:href="#path-1"></use>
            </mask>
            <use id="Mask" fill="#E7EEF8" opacity="0.6" xlink:href="#path-1"></use>
            <circle id="hair" fill="#CBD2DB" mask="url(#mask-2)" cx="20" cy="20" r="20"></circle>
            <path d="M20.6666667,46.6666667 C30.6077922,46.6666667 38.6666667,38.6077922 38.6666667,28.6666667 C38.6666667,18.7255412 30.6077922,18.6666667 20.6666667,18.6666667 C10.7255412,18.6666667 2.66666667,18.7255412 2.66666667,28.6666667 C2.66666667,38.6077922 10.7255412,46.6666667 20.6666667,46.6666667 Z" id="face" fill="#F6F7F8" mask="url(#mask-2)"></path>
            <g id="expression" mask="url(#mask-2)" fill="#B2BCC8">
                <g transform="translate(13.333333, 25.333333)">
                    <path d="M6.66666667,8.74991412 C6.64480641,8.78034436 6.62196958,8.81076162 6.59815081,8.84114641 C6.03084432,9.56484005 5.18295251,9.82869411 4.87338239,9.86980898 C4.56849206,9.91030231 4.01850664,9.94289069 3.34722192,9.69905472 C2.6759372,9.45521874 2.31267368,9.23844417 2.18204131,9.18028289 C1.91076478,9.05950279 1.79107382,8.94373686 2.20929041,8.91254696 C2.48947754,8.89165108 3.39554433,8.63885562 4.02048542,8.18688012 C4.32835212,7.96422202 4.62614894,7.35936126 4.72749113,7.17927934 C5.26967834,6.21582955 6.25116174,6.51575067 6.66666667,6.85837855 C7.08217159,6.51575067 8.06365499,6.21582955 8.6058422,7.17927934 C8.7071844,7.35936126 9.00498122,7.96422202 9.31284791,8.18688012 C9.937789,8.63885562 10.8438558,8.89165108 11.1240429,8.91254696 C11.5422595,8.94373686 11.4225685,9.05950279 11.151292,9.18028289 C11.0206596,9.23844417 10.6573961,9.45521874 9.98611141,9.69905472 C9.3148267,9.94289069 8.76484127,9.91030231 8.45995094,9.86980898 C8.15038083,9.82869411 7.30248901,9.56484005 6.73518252,8.84114641 C6.71136376,8.81076162 6.68852692,8.78034436 6.66666667,8.74991412 Z" id="mustache"></path>
                    <rect id="eye-right" x="10.6666667" y="4" width="1.33333333" height="2" rx="0.666666667"></rect>
                    <rect id="eyebrow-right" x="10" y="0" width="3.33333333" height="1.60000006" rx="0.800000032"></rect>
                    <rect id="eye-left" x="1.33333333" y="4" width="1.33333333" height="2" rx="0.666666667"></rect>
                    <rect id="eyebrow-left" x="0" y="0" width="3.33333333" height="1.60000006" rx="0.800000032"></rect>
                </g>
            </g>
            <mask id="mask-4" fill="white">
                <use xlink:href="#path-3"></use>
            </mask>
            <g id="border" opacity="0.6"></g>
        </g>
    </g>
</svg>