<?xml version="1.0" encoding="utf-8"?>
<!-- Generator: Adobe Illustrator 22.0.1, SVG Export Plug-In . SVG Version: 6.00 Build 0)  -->
<svg version="1.1" id="Layer_1" xmlns="http://www.w3.org/2000/svg" xmlns:xlink="http://www.w3.org/1999/xlink" x="0px" y="0px"
	 viewBox="0 0 20 20" style="enable-background:new 0 0 20 20;" xml:space="preserve">
<style type="text/css">
	.st0{fill:none;stroke:#FF5862;stroke-linecap:round;stroke-linejoin:round;stroke-miterlimit:10;}
</style>
<g>
	<title>icon/cate_cook_off</title>
	<desc>Created with Sketch.</desc>
	<path class="st0" d="M18.9,6.9c0-2.3-1.8-4.1-4.1-4.1c-0.5,0-1,0.1-1.5,0.3c-0.7-1.1-2-1.9-3.4-1.9c-1.5,0-2.8,0.8-3.5,2
		C6,3.1,5.6,3,5.2,3C2.9,3,1.1,4.8,1.1,7.1c0,1.9,1.3,3.4,3,3.9v7.8h12.1v-8C17.8,10.2,18.9,8.7,18.9,6.9z"/>
	<line class="st0" x1="4" y1="15.7" x2="16.1" y2="15.7"/>
	<line class="st0" x1="7.2" y1="10.9" x2="7.2" y2="12.8"/>
	<line class="st0" x1="10" y1="10.9" x2="10" y2="13.3"/>
	<line class="st0" x1="12.8" y1="10.9" x2="12.8" y2="12.8"/>
</g>
</svg>
