<?xml version="1.0" encoding="utf-8"?>
<!-- Generator: Adobe Illustrator 22.0.1, SVG Export Plug-In . SVG Version: 6.00 Build 0)  -->
<svg version="1.1" id="Layer_1" xmlns="http://www.w3.org/2000/svg" xmlns:xlink="http://www.w3.org/1999/xlink" x="0px" y="0px"
	 viewBox="0 0 20 20" style="enable-background:new 0 0 20 20;" xml:space="preserve">
<style type="text/css">
	.st0{fill:none;stroke:#212121;stroke-width:0.9;}
</style>
<title>icon/cate_art_off</title>
<desc>Created with Sketch.</desc>
<g id="_x2D__xD83C__xDFAF_Symbols">
	<g id="_x40_Search_x2F_category_x2F_Art_x5F_off" transform="translate(-28.000000, -17.000000)">
		<g id="미술">
			<g id="icon_x2F_cate_x5F_art_x5F_off" transform="translate(28.500000, 18.000000)">
				<path id="Combined-Shape" class="st0" d="M9.5,0c-5,0-9,4-9,9s4,9,9,9c0.8,0,1.5-0.7,1.5-1.5c0-0.4-0.1-0.7-0.4-1
					c-0.2-0.3-0.4-0.6-0.4-1c0-0.8,0.7-1.5,1.5-1.5h1.8c2.8,0,5-2.2,5-5C18.5,3.6,14.5,0,9.5,0z"/>
				<path id="Path" class="st0" d="M4.3,9.1c0.7,0,1.3-0.6,1.3-1.3S5,6.4,4.3,6.4S3,7.1,3,7.8S3.6,9.1,4.3,9.1z"/>
				<path id="Path_1_" class="st0" d="M7.3,5.2c0.7,0,1.3-0.6,1.3-1.4S8,2.5,7.3,2.5S5.9,3.1,5.9,3.8S6.6,5.2,7.3,5.2z"/>
				<path id="Path_2_" class="st0" d="M12.3,5.2c0.7,0,1.3-0.6,1.3-1.4S13,2.5,12.3,2.5s-1.4,0.6-1.4,1.3S11.6,5.2,12.3,5.2z"/>
				<path id="Path_3_" class="st0" d="M15.3,9.1c0.7,0,1.3-0.6,1.3-1.3S16,6.4,15.3,6.4s-1.4,0.6-1.4,1.4S14.6,9.1,15.3,9.1z"/>
			</g>
		</g>
	</g>
</g>
</svg>
