<?xml version="1.0" encoding="utf-8"?>
<!-- Generator: Adobe Illustrator 22.0.1, SVG Export Plug-In . SVG Version: 6.00 Build 0)  -->
<svg version="1.1" id="Layer_1" xmlns="http://www.w3.org/2000/svg" xmlns:xlink="http://www.w3.org/1999/xlink" x="0px" y="0px"
	 viewBox="0 0 20 20" style="enable-background:new 0 0 20 20;" xml:space="preserve">
<style type="text/css">
	.st0{fill:none;stroke:#212121;stroke-width:0.7;stroke-linecap:round;stroke-miterlimit:10;}
</style>
<title>icon/cate_flower_on</title>
<desc>Created with Sketch.</desc>
<g>
	<path class="st0" d="M11.2,3.3"/>
	<path class="st0" d="M10.8,7.5c0.3,0.2,0.7,0.4,1.4,0.4c0.3,1.3,1,2.2,1.8,2.2s1.4-0.7,1.7-1.8c1.2,0.3,2.3,0,2.7-0.8
		s-0.2-1.8-1.2-2.6c0.5-1,0.5-2-0.1-2.5S15.5,2,14.5,2.6c-1-0.9-2.1-1.1-2.8-0.6c-0.4,0.3-0.5,0.8-0.5,1.4"/>
	<circle class="st0" cx="14.1" cy="5.6" r="1.2"/>
</g>
<path class="st0" d="M15.7,7.7"/>
<path class="st0" d="M15.7,16c0.7-0.2,1.2-1.1,1.2-2.2c1.2-0.1,2.2-0.6,2.4-1.4c0.1-0.9-0.7-1.7-1.9-2.2c0.2-1.1,0-1.6-0.4-1.8"/>
<path class="st0" d="M12.3,8.3c-0.5,0-0.7,0.2-1,0.5"/>
<path class="st0" d="M15.8,11.3c-0.2-0.6-0.8-1-1.5-0.8c-0.1,0-0.2,0-0.3,0.1c0.5,0.8,0.4,1.4,0.3,2.1c0.2,0,0.4,0.2,0.6,0.1
	C15.6,12.5,16,11.9,15.8,11.3z"/>
<g>
	<path class="st0" d="M10.3,6.7c1.2-0.1,2.1-0.6,2.2-1.4c0.1-0.9-0.7-1.7-1.9-2.2c0.2-1.1,0-2-0.7-2.4s-1.7,0-2.5,0.9
		C6.3,1,5.1,1.1,4.6,1.7S4.3,3.2,4.9,4.1"/>
	<path class="st0" d="M10.3,6.7"/>
	<path class="st0" d="M9,4.3c-0.2-0.6-0.8-1-1.5-0.8C6.9,3.7,6.5,4.3,6.7,5c0,0.2,0.1,0.3,0.2,0.4c0.5,0,1.2,0,1.7,0.2
		C9,5.3,9.1,4.8,9,4.3z"/>
</g>
<path class="st0" d="M3.7,4.3"/>
<path class="st0" d="M15.6,16.5c0.1-0.3,0.1-0.6,0.1-0.9c0-1.1-0.6-2.1-1.5-2.7c0-0.2,0.1-0.4,0.1-0.7c0-1.8-1.5-3.2-3.3-3.4l0,0
	c0-1.9-1.6-3.4-3.7-3.4c-0.3,0-0.5,0-0.8,0.1C5.9,4.7,5,4.3,3.9,4.3c-0.1,0-0.1,0-0.2,0l1.7,7.9l2.2,2.4L15.6,16.5"/>
<path class="st0" d="M15.6,16.5"/>
<path class="st0" d="M5.4,12.2l-4.7,4.9c0,1,1.2,2.2,2.2,2.4l4.7-4.9L5.4,12.2z"/>
<path class="st0" d="M8.1,19.5c-1.5-1,0-2.7-0.5-4.9c2.3,2.2,2.3,4.9,4.9,4.9"/>
</svg>
