<?xml version="1.0" encoding="utf-8"?>
<!-- Generator: Adobe Illustrator 22.0.1, SVG Export Plug-In . SVG Version: 6.00 Build 0)  -->
<svg version="1.1" id="Layer_1" xmlns="http://www.w3.org/2000/svg" xmlns:xlink="http://www.w3.org/1999/xlink" x="0px" y="0px"
	 viewBox="0 0 20 20" style="enable-background:new 0 0 20 20;" xml:space="preserve">
<style type="text/css">
	.st0{display:none;}
	.st1{display:inline;}
	.st2{fill:#AA3030;}
	.st3{fill:#212121;}
</style>
<g id="Layer_3" class="st0">
	<g class="st1">
		<path class="st2" d="M10.3,18.2C5.7,18.2,2,14.4,2,9.8s3.7-8.4,8.4-8.4c4.6,0,8.4,3.7,8.4,8.4S14.9,18.2,10.3,18.2z"/>
	</g>
</g>
<path class="st3" d="M11.9,2.5c0.3,0,0.7,0,1,0.1c-0.6-0.2-1.3-0.4-2-0.5C6.8,2.5,3.6,6,3.6,10.3s3.2,7.8,7.4,8.3
	c0.7-0.1,1.4-0.3,2-0.5c-0.3,0-0.7,0.1-1,0.1c-4.3,0-7.9-3.5-7.9-7.9C4.1,6,7.6,2.5,11.9,2.5z"/>
<path class="st3" d="M13.3,17.9c-3.9-0.3-7-3.6-7-7.6s3.1-7.3,7-7.6c-0.3-0.1-0.6-0.3-1-0.4c-3.7,0.7-6.6,4-6.6,8s2.8,7.3,6.6,8
	C12.7,18.2,13,18.1,13.3,17.9z"/>
<path class="st3" d="M10,4.2c-0.4,0-0.9,0-1.3,0.1C8.5,4.5,8.3,4.7,8.1,4.9C8.7,4.7,9.3,4.6,10,4.6c4,0,7.2,3.3,7.2,7.2
	c0,1.5-0.5,2.9-1.2,4c0.6-0.6,1.1-1.4,1.5-2.2c0.2-0.6,0.2-1.2,0.2-1.9C17.7,7.7,14.3,4.2,10,4.2z"/>
<path class="st3" d="M16.9,14.4c0,0.1,0,0.2,0,0.3c0.2-0.3,0.3-0.6,0.5-0.9c-0.3-4.3-3.9-7.7-8.3-7.7C8.4,6.1,7.7,6.2,7,6.4
	C6.9,6.6,6.8,6.8,6.7,7c0.8-0.3,1.6-0.4,2.4-0.4C13.4,6.6,16.9,10.1,16.9,14.4z"/>
<path class="st3" d="M13.5,9.2c0-0.7-0.2-1.4-0.4-2.1c-0.2-0.1-0.4-0.2-0.6-0.3c0.3,0.8,0.4,1.6,0.5,2.4c0.1,3.1-1.6,5.8-4.1,7.1
	c-0.1,0.1-0.2,0.2-0.3,0.2l0.8,0.1C12.1,15.1,13.6,12.3,13.5,9.2z"/>
<path class="st3" d="M15.3,11c-0.5,3-2.7,5.4-5.4,6.2c-0.1,0,0.3,0.1,0.2,0.1l0.3,0.2c3-0.9,5-3.4,5.4-6.4c0-0.2,0-0.5,0.1-0.7
	c-0.2-0.2-0.3-0.6-0.5-0.8C15.4,10.1,15.4,10.6,15.3,11z"/>
<path class="st3" d="M9,16.6"/>
<g id="Layer_4">
	<path class="st3" d="M6.1,10.5"/>
	<path class="st3" d="M10.3,6.7"/>
</g>
<path class="st3" d="M13.3,10L13.3,10c-2.7,1.1-4.4,3.3-4.9,6.1l0.5,0.1c0.4-2.7,2.1-4.7,4.4-5.8C13.3,10.4,13.3,10,13.3,10z"/>
<path class="st3" d="M13,8c-2.8,0.6-4.9,2.5-5.9,5.3C7,13.4,7,13.6,7,13.7l0.4,0.7c0.1-0.3,0.1-0.7,0.3-1c0.9-2.6,3-4.4,5.5-4.9
	L13,8z"/>
<path class="st3" d="M10.6,6.5C8.5,7.2,6.9,8.6,6,10.6c0,0.3,0,0.7,0,1.1c0.9-2.5,2.9-4.3,5.3-4.9L10.6,6.5z"/>
<polygon class="st3" points="13.9,15 17.2,18.3 18.3,18.8 17.7,17.8 14.4,14.5 "/>
<path class="st3" d="M16.4,2.5c0-0.7,0.6-1.3,1.3-1.3c0.7,0,1.3,0.6,1.3,1.3s-0.6,1.3-1.3,1.3S16.4,3.2,16.4,2.5z M17.1,2.5
	c0,0.4,0.3,0.7,0.7,0.7s0.7-0.3,0.7-0.7s-0.3-0.7-0.7-0.7S17.1,2.1,17.1,2.5z"/>
<rect x="13.8" y="4.2" transform="matrix(0.7071 -0.7071 0.7071 0.7071 1.4286 12.4655)" class="st3" width="3.9" height="0.6"/>
<path class="st3" d="M2.3,3.8C1.6,3.8,1,3.2,1,2.5s0.6-1.3,1.3-1.3s1.3,0.6,1.3,1.3C3.7,3.2,3.1,3.8,2.3,3.8z M2.3,1.8
	C2,1.8,1.7,2.1,1.7,2.5S2,3.2,2.3,3.2S3,2.9,3,2.5S2.7,1.8,2.3,1.8z"/>
<polygon class="st3" points="4.1,4.8 2.7,3.3 3.1,3 4.5,4.4 "/>
<polygon class="st3" points="3.9,15.8 2,17.6 1.2,18.9 2.5,18.1 4.4,16.3 "/>
<g>
	<path class="st3" d="M14.6,16.7c-1.3,1-2.9,1.6-4.7,1.6c-4.3,0-7.9-3.5-7.9-7.9c0-4.3,3.5-7.8,7.9-7.8c2.3,0,4.3,1,5.7,2.5L16,4.7
		C14.6,3,12.4,2,9.9,2c-4.6,0-8.4,3.7-8.4,8.4s3.8,8.4,8.4,8.4c1.9,0,3.7-0.7,5.1-1.7L14.6,16.7z"/>
	<path class="st3" d="M16.5,5L16,5.5c1.1,1.3,1.7,3.1,1.7,4.9c0,2.3-1,4.4-2.6,5.8l0.4,0.4c1.7-1.5,2.8-3.8,2.8-6.3
		C18.4,8.4,17.7,6.5,16.5,5z"/>
</g>
</svg>
