<?xml version="1.0" encoding="utf-8"?>
<!-- Generator: Adobe Illustrator 22.0.1, SVG Export Plug-In . SVG Version: 6.00 Build 0)  -->
<svg version="1.1" id="Layer_1" xmlns="http://www.w3.org/2000/svg" xmlns:xlink="http://www.w3.org/1999/xlink" x="0px" y="0px"
	 viewBox="0 0 20 20" style="enable-background:new 0 0 20 20;" xml:space="preserve">
<title>icon/cate_all_off</title>
<desc>Created with Sketch.</desc>
<g id="_x2D__xD83C__xDFAF_Symbols">
	<g id="_x40_Search_x2F_category_x2F_All_x5F_off" transform="translate(-28.000000, -18.000000)">
		<g id="전체분야">
			<g id="icon_x2F_cate_x5F_all_x5F_off" transform="translate(27.500000, 17.000000)">
				<g id="Combined-Shape">
					<path id="path-1_1_" d="M2.4,2.9v6.3h6.3V2.9H2.4z M2.4,2h6.3c0.5,0,0.9,0.4,0.9,0.9v6.3c0,0.5-0.4,0.9-0.9,0.9H2.4
						c-0.5,0-0.9-0.4-0.9-0.9V2.9C1.5,2.4,1.9,2,2.4,2z M12.3,2h6.3c0.5,0,0.9,0.4,0.9,0.9v6.3c0,0.5-0.4,0.9-0.9,0.9h-6.3
						c-0.5,0-0.9-0.4-0.9-0.9V2.9C11.4,2.4,11.8,2,12.3,2z M12.3,9.2h6.3V2.9h-6.3V9.2z M12.3,11.9h6.3c0.5,0,0.9,0.4,0.9,0.9v6.3
						c0,0.5-0.4,0.9-0.9,0.9h-6.3c-0.5,0-0.9-0.4-0.9-0.9v-6.3C11.4,12.3,11.8,11.9,12.3,11.9z M12.3,19.1h6.3v-6.3h-6.3V19.1z
						 M2.4,11.9h6.3c0.5,0,0.9,0.4,0.9,0.9v6.3c0,0.5-0.4,0.9-0.9,0.9H2.4c-0.5,0-0.9-0.4-0.9-0.9v-6.3C1.5,12.3,1.9,11.9,2.4,11.9z
						 M2.4,19.1h6.3v-6.3H2.4V19.1z"/>
				</g>
			</g>
		</g>
	</g>
</g>
</svg>
