<?xml version="1.0" encoding="UTF-8"?>
<svg width="30px" height="30px" viewBox="0 0 30 30" version="1.1" xmlns="http://www.w3.org/2000/svg" xmlns:xlink="http://www.w3.org/1999/xlink">
    <!-- Generator: Sketch 50.2 (55047) - http://www.bohemiancoding.com/sketch -->
    <title>icon/close_lable</title>
    <desc>Created with Sketch.</desc>
    <defs>
        <path d="M16.2071068,15.5 L18.8535534,18.1464466 C19.0488155,18.3417088 19.0488155,18.6582912 18.8535534,18.8535534 C18.6582912,19.0488155 18.3417088,19.0488155 18.1464466,18.8535534 L15.5,16.2071068 L12.8535534,18.8535534 C12.6582912,19.0488155 12.3417088,19.0488155 12.1464466,18.8535534 C11.9511845,18.6582912 11.9511845,18.3417088 12.1464466,18.1464466 L14.7928932,15.5 L12.1464466,12.8535534 C11.9511845,12.6582912 11.9511845,12.3417088 12.1464466,12.1464466 C12.3417088,11.9511845 12.6582912,11.9511845 12.8535534,12.1464466 L15.5,14.7928932 L18.1464466,12.1464466 C18.3417088,11.9511845 18.6582912,11.9511845 18.8535534,12.1464466 C19.0488155,12.3417088 19.0488155,12.6582912 18.8535534,12.8535534 L16.2071068,15.5 Z" id="path-1"></path>
    </defs>
    <g id="icon/close_lable" stroke="none" stroke-width="1" fill="none" fill-rule="evenodd">
        <mask id="mask-2" fill="white">
            <use xlink:href="#path-1"></use>
        </mask>
        <use id="ic_close_lable" fill-opacity="0.6" fill="#FFFFFF" fill-rule="nonzero" xlink:href="#path-1"></use>
    </g>
</svg>