<?xml version="1.0" encoding="UTF-8"?>
<svg width="16px" height="16px" viewBox="0 0 16 16" version="1.1" xmlns="http://www.w3.org/2000/svg" xmlns:xlink="http://www.w3.org/1999/xlink">
    <!-- Generator: Sketch 50.2 (55047) - http://www.bohemiancoding.com/sketch -->
    <title>icon/detail_location_16</title>
    <desc>Created with Sketch.</desc>
    <defs></defs>
    <g id="icon/detail_location_16" stroke="none" stroke-width="1" fill="none" fill-rule="evenodd">
        <g id="icon" transform="translate(2.500000, 1.400000)" stroke="#212121">
            <path d="M5.5,12.5798944 C5.57644657,12.5226008 5.65409036,12.4634901 5.73268511,12.4027179 C6.44836528,11.8493286 7.1258009,11.2504159 7.73676884,10.624182 C9.54996062,8.76568475 10.5,6.9646622 10.5,5.34071945 C10.5,2.67060567 8.26465858,0.5 5.5,0.5 C2.73534142,0.5 0.500000041,2.67060567 0.5,5.34071944 C0.5,6.9646622 1.45003938,8.76568475 3.26323116,10.624182 C3.8741991,11.2504159 4.55163472,11.8493286 5.26731489,12.4027179 C5.34590964,12.4634901 5.42355343,12.5226008 5.5,12.5798944 Z M5.55499995,7.3199999 C4.48909041,7.3199999 3.625,6.45590949 3.625,5.38999995 C3.625,4.32409041 4.48909041,3.46 5.55499995,3.46 C6.62090949,3.46 7.4849999,4.32409041 7.4849999,5.38999995 C7.4849999,6.45590949 6.62090949,7.3199999 5.55499995,7.3199999 Z" id="shape"></path>
        </g>
    </g>
</svg>