<?xml version="1.0" encoding="UTF-8"?>
<svg width="16px" height="16px" viewBox="0 0 16 16" version="1.1" xmlns="http://www.w3.org/2000/svg" xmlns:xlink="http://www.w3.org/1999/xlink">
    <!-- Generator: Sketch 50.2 (55047) - http://www.bohemiancoding.com/sketch -->
    <title>icon/detail_fee_16</title>
    <desc>Created with Sketch.</desc>
    <defs>
        <path d="M7.60338103,7.00498047 L7.89786808,7.95551235 L8.19235514,7.00498047 L7.60338103,7.00498047 Z M7.36422605,6.23304691 L8.43151012,6.23304691 L9.01314787,4.35566309 C9.12069926,4.12597147 9.34916284,4.03406883 9.52343554,4.1503928 C9.69770825,4.26671676 9.75179656,4.54721782 9.64424517,4.77690944 L9.19311497,6.23304691 L9.61403322,6.23304691 C9.82719679,6.23304691 10,6.40585013 10,6.61901369 C10,6.83217726 9.82719679,7.00498047 9.61403322,7.00498047 L8.95395999,7.00498047 L8.24284255,9.30029294 C8.19079886,9.41143979 8.11044295,9.49032262 8.02161518,9.52896036 C7.98170562,9.54749503 7.93983751,9.55624221 7.89786808,9.555949 C7.85589866,9.55624221 7.81403055,9.54749503 7.77412099,9.52896036 C7.68529322,9.49032262 7.60493731,9.41143979 7.55289362,9.30029294 L6.84177618,7.00498047 L6.00149329,7.00498047 L5.29015905,9.3002989 C5.21362383,9.46367764 5.07586097,9.55732975 4.93993106,9.55591077 C4.80400115,9.55732975 4.6662383,9.46367764 4.58970307,9.3002989 L3.87836883,7.00498047 L3.38596678,7.00498047 C3.17280321,7.00498047 3,6.83217726 3,6.61901369 C3,6.40585013 3.17280321,6.23304691 3.38596678,6.23304691 L3.63914155,6.23304691 L3.18789879,4.77698622 C3.0803028,4.54730247 3.13445999,4.26678926 3.30886227,4.15044245 C3.48326454,4.03409563 3.71186931,4.12597338 3.81946531,4.35565713 L4.40128072,6.23304691 L5.47858141,6.23304691 L6.06039682,4.35565713 C6.13893187,4.18800939 6.28193604,4.09377972 6.42127526,4.10035167 C6.56072443,4.09347445 6.70396467,4.1877509 6.7825883,4.35566309 L7.36422605,6.23304691 Z M5.23935413,7.00498047 L4.64050799,7.00498047 L4.93993106,7.97115257 L5.23935413,7.00498047 Z M6.24072057,6.23304691 L6.60262119,6.23304691 L6.42169822,5.649072 L6.24072057,6.23304691 Z" id="path-1"></path>
    </defs>
    <g id="icon/detail_fee_16" stroke="none" stroke-width="1" fill="none" fill-rule="evenodd">
        <g id="icon" transform="translate(1.500000, 1.500000)">
            <mask id="mask-2" fill="white">
                <use xlink:href="#path-1"></use>
            </mask>
            <use id="Combined-Shape" fill="#212121" fill-rule="nonzero" xlink:href="#path-1"></use>
            <circle id="Oval" stroke="#212121" cx="6.5" cy="6.5" r="5.5"></circle>
        </g>
    </g>
</svg>