<?xml version="1.0" encoding="UTF-8"?>
<svg width="16px" height="16px" viewBox="0 0 16 16" version="1.1" xmlns="http://www.w3.org/2000/svg" xmlns:xlink="http://www.w3.org/1999/xlink">
    <!-- Generator: Sketch 50.2 (55047) - http://www.bohemiancoding.com/sketch -->
    <title>icon/detail_hash_16</title>
    <desc>Created with Sketch.</desc>
    <defs>
        <path d="M4.58938947,7.27836898 L4.10223491,5.86356471 L3.15471759,6.18963867 C2.89333903,6.2795882 2.60851107,6.14067642 2.51853653,5.87937051 C2.42856199,5.61806461 2.5675124,5.33331581 2.82889095,5.24336628 L3.77640827,4.91729232 L3.44950899,3.96790474 C3.35953445,3.70659883 3.49848486,3.42185004 3.75986341,3.3319005 C4.02124197,3.24195097 4.30606993,3.38086276 4.39604447,3.64216866 L4.72294375,4.59155625 L6.13814136,4.10453709 L5.81197674,3.15728313 C5.7220022,2.89597722 5.86095261,2.61122843 6.12233117,2.52127889 C6.38370972,2.43132936 6.66853768,2.57024115 6.75851222,2.83154705 L7.08467684,3.77880101 L8.03432837,3.45199259 C8.29570693,3.36204306 8.58053489,3.50095485 8.67050943,3.76226075 C8.76048397,4.02356666 8.62153356,4.30831545 8.36015501,4.39826499 L7.41050348,4.7250734 L7.89765804,6.13987767 L8.84517536,5.81380371 C9.10655391,5.72385418 9.39138187,5.86276596 9.48135641,6.12407187 C9.57133096,6.38537777 9.43238055,6.67012657 9.17100199,6.7600761 L8.22348467,7.08615006 L8.55038395,8.03553764 C8.64035849,8.29684355 8.50140809,8.58159234 8.24002953,8.67154188 C7.97865098,8.76149141 7.69382301,8.62257962 7.60384847,8.36127372 L7.27694919,7.41188613 L5.86175158,7.89890529 L6.1879162,8.84615925 C6.27789074,9.10746516 6.13894033,9.39221396 5.87756178,9.48216349 C5.61618322,9.57211302 5.33135526,9.43320123 5.24138072,9.17189533 L4.9152161,8.22464137 L3.96556457,8.55144979 C3.70418601,8.64139932 3.41935805,8.50248753 3.32938351,8.24118163 C3.23940897,7.97987572 3.37835938,7.69512693 3.63973793,7.60517739 L4.58938947,7.27836898 Z M5.53592495,6.9526329 L6.95112256,6.46561374 L6.463968,5.05080948 L5.04877038,5.53782864 L5.53592495,6.9526329 Z M11.5247521,4.35719154 C12.7378407,8.38544681 11.6929419,10.3066333 7.64580559,11.5247295 C3.61555813,12.7377426 1.69383754,11.6931342 0.475402617,7.64712285 C-0.737947748,3.61799557 0.306951091,1.69680912 4.35408735,0.478712861 C8.39582629,-0.737758931 10.3100837,0.29694028 11.5247521,4.35719154 Z M10.5659429,4.64482059 C9.50940439,1.11315035 8.153571,0.380291888 4.64266862,1.43699391 C1.12276881,2.49640396 0.380634743,3.86091682 1.43395009,7.35862179 C2.49365468,10.8775433 3.85854691,11.6194711 7.35722432,10.5664485 C10.8771241,9.50703842 11.6192582,8.14252556 10.5659429,4.64482059 Z" id="path-1"></path>
    </defs>
    <g id="icon/detail_hash_16" stroke="none" stroke-width="1" fill="none" fill-rule="evenodd">
        <g id="icon" transform="translate(2.000000, 2.000000)">
            <mask id="mask-2" fill="white">
                <use xlink:href="#path-1"></use>
            </mask>
            <use id="Combined-Shape" fill="#212121" fill-rule="nonzero" xlink:href="#path-1"></use>
        </g>
    </g>
</svg>