<?xml version="1.0" encoding="UTF-8"?>
<svg width="16px" height="16px" viewBox="0 0 16 16" version="1.1" xmlns="http://www.w3.org/2000/svg" xmlns:xlink="http://www.w3.org/1999/xlink">
    <!-- Generator: Sketch 50.2 (55047) - http://www.bohemiancoding.com/sketch -->
    <title>icon/detail_period_16</title>
    <desc>Created with Sketch.</desc>
    <defs>
        <path d="M9.5,4 L9.5,2.5 C9.5,2.22385763 9.27614237,2 9,2 L8,2 L8,2.5 C8,2.77614237 7.77614237,3 7.5,3 C7.22385763,3 7,2.77614237 7,2.5 L7,2 L4,2 L4,2.5 C4,2.77614237 3.77614237,3 3.5,3 C3.22385763,3 3,2.77614237 3,2.5 L3,2 L2,2 C1.72385763,2 1.5,2.22385763 1.5,2.5 L1.5,4 L9.5,4 Z M9.5,5 L1.5,5 L1.5,9.5 C1.5,9.77614237 1.72385763,10 2,10 L9,10 C9.27614237,10 9.5,9.77614237 9.5,9.5 L9.5,5 Z M4,1 L7,1 L7,0.5 C7,0.223857625 7.22385763,0 7.5,0 C7.77614237,0 8,0.223857625 8,0.5 L8,1 L9,1 C9.82842712,1 10.5,1.67157288 10.5,2.5 L10.5,9.5 C10.5,10.3284271 9.82842712,11 9,11 L2,11 C1.17157288,11 0.5,10.3284271 0.5,9.5 L0.5,2.5 C0.5,1.67157288 1.17157288,1 2,1 L3,1 L3,0.5 C3,0.223857625 3.22385763,0 3.5,0 C3.77614237,0 4,0.223857625 4,0.5 L4,1 Z" id="path-1"></path>
    </defs>
    <g id="icon/detail_period_16" stroke="none" stroke-width="1" fill="none" fill-rule="evenodd">
        <g id="icon" transform="translate(2.500000, 2.500000)">
            <mask id="mask-2" fill="white">
                <use xlink:href="#path-1"></use>
            </mask>
            <use id="Combined-Shape" fill="#212121" fill-rule="nonzero" xlink:href="#path-1"></use>
        </g>
    </g>
</svg>