<?xml version="1.0" encoding="UTF-8"?>
<svg width="16px" height="16px" viewBox="0 0 16 16" version="1.1" xmlns="http://www.w3.org/2000/svg" xmlns:xlink="http://www.w3.org/1999/xlink">
    <!-- Generator: Sketch 50.2 (55047) - http://www.bohemiancoding.com/sketch -->
    <title>icon/detail_guest_16</title>
    <desc>Created with Sketch.</desc>
    <defs>
        <path d="M9,9.04761905 C9,9.31061179 8.77614237,9.52380952 8.5,9.52380952 C8.22385763,9.52380952 8,9.31061179 8,9.04761905 L8,8.0952381 C8,7.30625988 7.32842712,6.66666667 6.5,6.66666667 L2.5,6.66666667 C1.67157288,6.66666667 1,7.30625988 1,8.0952381 L1,9.04761905 C1,9.31061179 0.776142375,9.52380952 0.5,9.52380952 C0.223857625,9.52380952 0,9.31061179 0,9.04761905 L0,8.0952381 C1.38777878e-16,6.78027441 1.11928813,5.71428571 2.5,5.71428571 L6.5,5.71428571 C7.88071187,5.71428571 9,6.78027441 9,8.0952381 L9,9.04761905 Z M4.5,4.76190476 C3.11928813,4.76190476 2,3.69591607 2,2.38095238 C2,1.06598869 3.11928813,0 4.5,0 C5.88071187,0 7,1.06598869 7,2.38095238 C7,3.69591607 5.88071187,4.76190476 4.5,4.76190476 Z M12,9.04761905 C12,9.31061179 11.7761424,9.52380952 11.5,9.52380952 C11.2238576,9.52380952 11,9.31061179 11,9.04761905 L11.0000001,8.09559329 C10.9994903,7.44456391 10.5368747,6.87620764 9.87500014,6.71345043 C9.60762641,6.64770232 9.44684153,6.38797511 9.51587705,6.13333347 C9.58491256,5.87869182 9.85762614,5.72556336 10.1249999,5.79131147 C11.2281241,6.06257349 11.99915,7.00983394 12,8.0952381 L12,9.04761905 Z M7.87598041,0.999404762 C7.60846748,0.934172257 7.44713087,0.674755555 7.515625,0.41998134 C7.58411913,0.165207125 7.85650667,0.0115532098 8.12401959,0.0767857143 C9.23021636,0.346529635 10.0039216,1.29582806 10.0039216,2.38333333 C10.0039216,3.4708386 9.23021636,4.42013703 8.12401959,4.68988095 C7.85650667,4.75511346 7.58411913,4.60145954 7.515625,4.34668533 C7.44713087,4.09191111 7.60846748,3.83249441 7.87598041,3.7672619 C8.53969847,3.60541555 9.00392163,3.0358365 9.00392163,2.38333333 C9.00392163,1.73083017 8.53969847,1.16125111 7.87598041,0.999404762 Z M4.5,3.80952381 C5.32842712,3.80952381 6,3.16993059 6,2.38095238 C6,1.59197417 5.32842712,0.952380952 4.5,0.952380952 C3.67157288,0.952380952 3,1.59197417 3,2.38095238 C3,3.16993059 3.67157288,3.80952381 4.5,3.80952381 Z" id="path-1"></path>
    </defs>
    <g id="icon/detail_guest_16" stroke="none" stroke-width="1" fill="none" fill-rule="evenodd">
        <g id="icon" transform="translate(2.000000, 3.000000)">
            <mask id="mask-2" fill="white">
                <use xlink:href="#path-1"></use>
            </mask>
            <use id="Combined-Shape" fill="#212121" fill-rule="nonzero" xlink:href="#path-1"></use>
        </g>
    </g>
</svg>