<?xml version="1.0" encoding="UTF-8"?>
<svg width="30px" height="30px" viewBox="0 0 30 30" version="1.1" xmlns="http://www.w3.org/2000/svg" xmlns:xlink="http://www.w3.org/1999/xlink">
    <!-- Generator: Sketch 50.2 (55047) - http://www.bohemiancoding.com/sketch -->
    <title>icon/download_2</title>
    <desc>Created with Sketch.</desc>
    <defs>
        <path d="M14,16.5857864 L14,5 C14,4.44771525 14.4477153,4 15,4 C15.5522847,4 16,4.44771525 16,5 L16,16.5857864 L18.2928932,14.2928932 C18.6834175,13.9023689 19.3165825,13.9023689 19.7071068,14.2928932 C20.0976311,14.6834175 20.0976311,15.3165825 19.7071068,15.7071068 L15.7071068,19.7071068 C15.3165825,20.0976311 14.6834175,20.0976311 14.2928932,19.7071068 L10.2928932,15.7071068 C9.90236893,15.3165825 9.90236893,14.6834175 10.2928932,14.2928932 C10.6834175,13.9023689 11.3165825,13.9023689 11.7071068,14.2928932 L14,16.5857864 Z M5,20 C5,19.4477153 5.44771525,19 6,19 C6.55228475,19 7,19.4477153 7,20 L7,23 C7,23.5522847 7.44771525,24 8,24 L22,24 C22.5522847,24 23,23.5522847 23,23 L23,20 C23,19.4477153 23.4477153,19 24,19 C24.5522847,19 25,19.4477153 25,20 L25,23 C25,24.6568542 23.6568542,26 22,26 L8,26 C6.34314575,26 5,24.6568542 5,23 L5,20 Z" id="path-1"></path>
    </defs>
    <g id="icon/download_2" stroke="none" stroke-width="1" fill="none" fill-rule="evenodd">
        <g id="ic">
            <mask id="mask-2" fill="white">
                <use xlink:href="#path-1"></use>
            </mask>
            <g id="Combined-Shape" fill-rule="nonzero"></g>
            <rect id="color" fill="#336EF5" mask="url(#mask-2)" x="0" y="0" width="30" height="30"></rect>
        </g>
    </g>
</svg>