<?xml version="1.0" encoding="UTF-8"?>
<svg width="24px" height="24px" viewBox="0 0 24 24" version="1.1" xmlns="http://www.w3.org/2000/svg" xmlns:xlink="http://www.w3.org/1999/xlink">
    <!-- Generator: Sketch 50.2 (55047) - http://www.bohemiancoding.com/sketch -->
    <title>icon/host_follow_on_24</title>
    <desc>Created with Sketch.</desc>
    <defs></defs>
    <g id="icon/host_follow_on_24" stroke="none" stroke-width="1" fill="none" fill-rule="evenodd">
        <g id="icon_host_follow">
            <polygon id="#guide" points="0 0 24 0 24 24 0 24"></polygon>
            <g id="icon" transform="translate(0.000000, 5.000000)" fill="#FF6A56">
                <path d="M14,8 C16.21,8 18,6.21 18,4 C18,1.79 16.21,0 14,0 C11.79,0 10,1.79 10,4 C10,6.21 11.79,8 14,8 Z M14,2 C15.1,2 16,2.9 16,4 C16,5.1 15.1,6 14,6 C12.9,6 12,5.1 12,4 C12,2.9 12.9,2 14,2 Z" id="Shape" fill-rule="nonzero"></path>
                <path d="M14,10 C11.33,10 6,11.34 6,14 L6,16 L22,16 L22,14 C22,11.34 16.67,10 14,10 Z M8,14 C8.22,13.28 11.31,12 14,12 C16.7,12 19.8,13.29 20,14 L8,14 Z" id="Shape" fill-rule="nonzero"></path>
                <path d="M6,8 L6,4 L8,4 L8,8 L8,10 L2,10 L2,8 L6,8 Z" id="Combined-Shape" transform="translate(5.000000, 7.000000) rotate(45.000000) translate(-5.000000, -7.000000) "></path>
            </g>
        </g>
    </g>
</svg>