<?xml version="1.0" encoding="UTF-8"?>
<svg width="25px" height="24px" viewBox="0 0 25 24" version="1.1" xmlns="http://www.w3.org/2000/svg" xmlns:xlink="http://www.w3.org/1999/xlink">
    <!-- Generator: Sketch 50.2 (55047) - http://www.bohemiancoding.com/sketch -->
    <title>icon/host_feedback_24</title>
    <desc>Created with Sketch.</desc>
    <defs></defs>
    <g id="icon/host_feedback_24" stroke="none" stroke-width="1" fill="none" fill-rule="evenodd">
        <g id="icon_host_feedback">
            <polygon id="#guide" points="0.5 0 24.5 0 24.5 24 0.5 24"></polygon>
            <g id="icon" transform="translate(12.500000, 12.000000) scale(1, -1) translate(-12.500000, -12.000000) translate(1.500000, 2.000000)" fill="#212121" fill-rule="nonzero">
                <path d="M20,3 L15,3 L11,0 L7,3 L2,3 C0.9,3 0,3.9 0,5 L0,18 C0,19.1 0.9,20 2,20 L20,20 C21.1,20 22,19.1 22,18 L22,5 C22,3.9 21.1,3 20,3 Z M20,18 L2,18 L2,5 L7.52,5 L11.04,2.5 L14.52,5 L20,5 L20,18 Z" id="Shape"></path>
                <path d="M5.57,11 C5.57,12.42 4.42,13.58 3,13.58 L3,11 L5.57,11 Z M9,11 C9,14.31 6.32,17 3,17 L3,15.29 C5.37,15.29 7.29,13.36 7.29,11 L9,11 Z" id="Combined-Shape" transform="translate(6.000000, 14.000000) scale(1, -1) translate(-6.000000, -14.000000) "></path>
            </g>
        </g>
    </g>
</svg>