<svg xmlns="http://www.w3.org/2000/svg" viewBox="0 0 18 18">
  <defs>
    <style>
      .cls-1 {
        fill: #ff5862;
      }
    </style>
  </defs>
  <path id="Shape" class="cls-1" d="M3.38,18V14A7.532,7.532,0,0,1,0,7.88,7.377,7.377,0,0,1,2.624,2.308,9.626,9.626,0,0,1,9,0a9.621,9.621,0,0,1,6.375,2.309A7.375,7.375,0,0,1,18,7.88a7.374,7.374,0,0,1-2.625,5.571A9.621,9.621,0,0,1,9,15.76a11.59,11.59,0,0,1-1.68-.15L3.382,18ZM9,1.13c-4.339,0-7.87,3.028-7.87,6.75A6.552,6.552,0,0,0,4.45,13.39V16L7.1,14.43a9.932,9.932,0,0,0,1.9.2c4.345,0,7.88-3.028,7.88-6.75S13.345,1.13,9,1.13Zm2.82,9.56H6.19a.56.56,0,0,1,0-1.121h5.63a.56.56,0,1,1,0,1.121Zm1.12-3.38H5.06a.56.56,0,1,1,0-1.12h7.88a.56.56,0,1,1,0,1.12Z"/>
</svg>
