<?xml version="1.0" encoding="UTF-8"?>
<svg width="16px" height="16px" viewBox="0 0 16 16" version="1.1" xmlns="http://www.w3.org/2000/svg" xmlns:xlink="http://www.w3.org/1999/xlink">
    <!-- Generator: Sketch 50.2 (55047) - http://www.bohemiancoding.com/sketch -->
    <title>icon/ic_facility_park_16</title>
    <desc>Created with Sketch.</desc>
    <defs></defs>
    <g id="icon/ic_facility_park_16" stroke="none" stroke-width="1" fill="none" fill-rule="evenodd">
        <path d="M4.625,10.75 C5.0975,10.75 5.48,10.3658537 5.48,9.89547038 C5.48,9.42508711 5.0975,9.04094077 4.625,9.04094077 C4.1525,9.04094077 3.77,9.42508711 3.77,9.89547038 C3.77,10.3658537 4.1525,10.75 4.625,10.75 Z M11.375,10.7108014 C11.8475,10.7108014 12.23,10.3266551 12.23,9.85627178 C12.23,9.37804878 11.8475,9.00174216 11.375,9.00174216 C10.9025,9.00174216 10.52,9.37804878 10.52,9.85627178 C10.52,10.3266551 10.9025,10.7108014 11.375,10.7108014 Z M3.1025,9.63675958 L3.095,9.46428571 C3.095,8.68031359 3.785,8.20209059 4.5725,8.20209059 C5.06,8.20209059 5.495,8.28832753 5.75,8.53135889 C6.005,8.77439024 5.9975,9.00174216 5.9975,9.20557491 C5.9975,9.29965157 5.99,9.39372822 5.975,9.48780488 L10.025,9.48780488 C10.01,9.39372822 10.0025,9.29965157 10.0025,9.20557491 C10.0025,9.00174216 9.995,8.77439024 10.25,8.53135889 C10.505,8.28832753 10.94,8.20209059 11.4275,8.20209059 C12.215,8.20209059 12.86,8.84494774 12.86,9.62891986 C12.86,9.71515679 12.8525,9.80139373 12.8375,9.88763066 C13.4525,9.73867596 14,8.40592334 14,7.77874564 C14,7.06533101 13.2875,6.35191638 12.575,6.35191638 L11.7875,6.35191638 L9.4625,4 L8.285,4 L7.715,4 L5.9975,4 L3.8975,6.35191638 L3.14,6.35191638 C2.57,6.35191638 2,6.92421603 2,7.48867596 C2,8.15505226 2.465,9.37020906 3.1025,9.63675958 Z M10.25,6.35191638 L8,6.35191638 L8,4.78397213 L8.7125,4.78397213 L10.2875,6.35191638 L10.25,6.35191638 Z M5.75,6.35191638 L5.1425,6.35191638 L6.575,4.78397213 L7.25,4.78397213 L7.25,6.35191638 L5.75,6.35191638 Z" id="Shape" fill="#212121"></path>
    </g>
</svg>