<?xml version="1.0" encoding="UTF-8"?>
<svg width="16px" height="16px" viewBox="0 0 16 16" version="1.1" xmlns="http://www.w3.org/2000/svg" xmlns:xlink="http://www.w3.org/1999/xlink">
    <!-- Generator: Sketch 50.2 (55047) - http://www.bohemiancoding.com/sketch -->
    <title>icon/ic_facility_charge_16</title>
    <desc>Created with Sketch.</desc>
    <defs></defs>
    <g id="icon/ic_facility_charge_16" stroke="none" stroke-width="1" fill="none" fill-rule="evenodd">
        <path d="M4.95999997,11.6977473 C4.95999997,11.8331822 5.06687731,11.9399998 5.2010645,11.9399998 L9.99893531,11.9399998 C10.1331576,11.9399998 10.2399998,11.8329012 10.2399998,11.6977473 L10.2399998,4.20225249 C10.2399998,4.06681749 10.1331225,3.95999997 9.99893531,3.95999997 L5.2010645,3.95999997 C5.06684219,3.95999997 4.95999997,4.06709858 4.95999997,4.20225249 L4.95999997,11.6977473 Z M5.2010645,3 L9.99893531,3 C10.6622649,3 11.1999998,3.53557367 11.1999998,4.20225249 L11.1999998,11.6977473 C11.1999998,12.361733 10.6647118,12.8999997 9.99893531,12.8999997 L5.2010645,12.8999997 C4.53773489,12.8999997 4,12.3644261 4,11.6977473 L4,4.20225249 C4,3.53826677 4.53528797,3 5.2010645,3 Z M7.47999991,11.2199998 C7.81137075,11.2199998 8.07999989,10.9513706 8.07999989,10.6199998 C8.07999989,10.288629 7.81137075,10.0199998 7.47999991,10.0199998 C7.14862907,10.0199998 6.87999992,10.288629 6.87999992,10.6199998 C6.87999992,10.9513706 7.14862907,11.2199998 7.47999991,11.2199998 Z" id="Smartphone" fill="#212121" fill-rule="nonzero"></path>
    </g>
</svg>