<?xml version="1.0" encoding="UTF-8"?>
<svg width="16px" height="16px" viewBox="0 0 16 16" version="1.1" xmlns="http://www.w3.org/2000/svg" xmlns:xlink="http://www.w3.org/1999/xlink">
    <!-- Generator: Sketch 50.2 (55047) - http://www.bohemiancoding.com/sketch -->
    <title>icon/ic_facility_wifi_16</title>
    <desc>Created with Sketch.</desc>
    <defs>
        <path d="M4.70867845,8.9757276 C6.62899268,7.32696259 9.41761927,7.32696259 11.3379335,8.9757276 C11.5577149,9.16443001 11.8842839,9.13374569 12.0673457,8.90719226 C12.2504075,8.68063883 12.2206404,8.34400746 12.000859,8.15530505 C9.69648193,6.17678704 6.35013002,6.17678704 4.04575294,8.15530505 C3.82597152,8.34400746 3.7962044,8.68063883 3.97926622,8.90719226 C4.16232805,9.13374569 4.48889702,9.16443001 4.70867845,8.9757276 Z M2.86054702,7.07062539 C5.79713121,4.40010794 10.2028688,4.40010794 13.139453,7.07062539 C13.3539471,7.26568545 13.6812297,7.2445733 13.8704591,7.02347009 C14.0596886,6.80236687 14.0392075,6.46499989 13.8247134,6.26993983 C10.4965846,3.24335339 5.50341537,3.24335339 2.17528662,6.26993983 C1.9607925,6.46499989 1.94031142,6.80236687 2.12954086,7.02347009 C2.31877029,7.2445733 2.6460529,7.26568545 2.86054702,7.07062539 Z M6.50021736,10.9013033 C7.3982858,10.2436098 8.6017142,10.2436098 9.49978264,10.9013033 C9.73296025,11.0720692 10.0562832,11.01565 10.2219446,10.7752877 C10.387606,10.5349253 10.3328733,10.20164 10.0996957,10.0308741 C8.84239988,9.11010309 7.15760012,9.11010309 5.90030431,10.0308741 C5.66712669,10.20164 5.612394,10.5349253 5.77805541,10.7752877 C5.94371683,11.01565 6.26703975,11.0720692 6.50021736,10.9013033 Z" id="path-1"></path>
    </defs>
    <g id="icon/ic_facility_wifi_16" stroke="none" stroke-width="1" fill="none" fill-rule="evenodd">
        <mask id="mask-2" fill="white">
            <use xlink:href="#path-1"></use>
        </mask>
        <use id="Shape" fill="#212121" fill-rule="nonzero" xlink:href="#path-1"></use>
    </g>
</svg>