<?xml version="1.0" encoding="UTF-8"?>
<svg width="16px" height="16px" viewBox="0 0 16 16" version="1.1" xmlns="http://www.w3.org/2000/svg" xmlns:xlink="http://www.w3.org/1999/xlink">
    <!-- Generator: Sketch 50.2 (55047) - http://www.bohemiancoding.com/sketch -->
    <title>icon/ic_facility_tea_16</title>
    <desc>Created with Sketch.</desc>
    <defs></defs>
    <g id="icon/ic_facility_tea_16" stroke="none" stroke-width="1" fill="none" fill-rule="evenodd">
        <path d="M11.4062925,5.83659624 C11.2858128,5.83659624 11.0570897,5.87787984 11.0570897,5.87787984 L10.8746629,8.83202157 C10.8746629,8.83202157 11.0570897,9.01143408 11.4062925,8.97403909 C11.9796502,8.91264008 12.5897036,8.03965095 12.5897036,6.99655176 C12.5897036,6.20892554 12.2149258,5.83659624 11.4062925,5.83659624 Z M11.1133555,4.83432937 C11.2094195,4.8230452 11.3071737,4.81724139 11.4062925,4.81724139 C12.7694594,4.81724139 13.6000004,5.64242169 13.6000004,6.99655176 C13.6000004,8.35068183 12.7694594,9.99339394 11.4062925,9.99339394 C11.2021513,9.99339394 11.0037985,9.96266609 10.8140785,9.90586585 C9.73693014,9.58337851 9.88826479,4.97823488 11.1133555,4.83432937 Z M5.35817962,10.1075836 C5.38559226,10.5591475 5.78805961,10.9410629 6.23604377,10.9410629 L8.95607885,10.9410629 C9.40531351,10.9410629 9.80648694,10.5598629 9.83394301,10.1075836 L10.1777639,4.44387923 C10.1588419,4.75557891 10.4110219,5.02475646 10.7160614,5.02475646 L4.47606119,5.02475646 C4.78045258,5.02475646 5.03328543,4.7556562 5.01435869,4.44387923 L5.35817962,10.1075836 Z M4.47606119,4 L10.6580353,4 C10.9374055,4 11.1500441,4.22791186 11.1331505,4.50619822 L10.7925268,10.1172355 C10.732756,11.1018292 9.89469749,11.9000001 8.91441893,11.9000001 L6.2196776,11.9000001 C5.24219805,11.9000001 4.40139294,11.1026925 4.34156978,10.1172355 L4.00094606,4.50619822 C3.98397475,4.22663266 4.19739002,4 4.47606119,4 Z" id="Mug" fill="#212121" fill-rule="nonzero"></path>
    </g>
</svg>