<?xml version="1.0" encoding="utf-8"?>
<!-- Generator: Adobe Illustrator 16.0.0, SVG Export Plug-In . SVG Version: 6.00 Build 0)  -->
<!DOCTYPE svg PUBLIC "-//W3C//DTD SVG 1.1//EN" "http://www.w3.org/Graphics/SVG/1.1/DTD/svg11.dtd">
<svg version="1.1" id="Layer_1" xmlns="http://www.w3.org/2000/svg" xmlns:xlink="http://www.w3.org/1999/xlink" x="0px" y="0px"
	 width="16px" height="16px" viewBox="298 388 16 16" enable-background="new 298 388 16 16" xml:space="preserve">
<g id="heart" transform="translate(-1 -2.5)">
	<path id="Shape" d="M307,406.5c-4.418,0-8-3.582-8-8c0-4.418,3.582-8,8-8c4.418,0,8,3.582,8,8
		C314.995,402.916,311.416,406.495,307,406.5z M305.155,395.568c-1.193-0.005-2.164,0.958-2.168,2.151
		c-0.002,0.636,0.276,1.241,0.76,1.654l3.055,3.055c0.112,0.105,0.288,0.105,0.4,0l3.054-3.055c0.901-0.782,0.998-2.146,0.216-3.047
		s-2.146-0.997-3.047-0.215c-0.166,0.144-0.309,0.312-0.423,0.499C306.608,395.965,305.909,395.57,305.155,395.568z"/>
</g>
</svg>
