<?xml version="1.0" encoding="utf-8"?>
<!-- Generator: Adobe Illustrator 22.0.1, SVG Export Plug-In . SVG Version: 6.00 Build 0)  -->
<svg version="1.1" id="Layer_1" xmlns="http://www.w3.org/2000/svg" xmlns:xlink="http://www.w3.org/1999/xlink" x="0px" y="0px"
	 viewBox="0 0 16 16" style="enable-background:new 0 0 16 16;" xml:space="preserve">
<style type="text/css">
	.st0{fill:#EAEDF3;}
</style>
<title>icon/ic_rating_empty_13</title>
<desc>Created with Sketch.</desc>
<title>icon/ic_rating_one_13</title>
<desc>Created with Sketch.</desc>
<g id="icon_x2F_ic_x5F_rating_x5F_one_x5F_13">
	<g id="shape">
		<g id="Mask">
			<path id="path-1_1_" class="st0" d="M14.5,6.5c0,0.1-0.1,0.2-0.2,0.4l-2.8,2.9l0.7,4.1c0,0,0,0.1,0,0.2c0,0.1,0,0.2-0.1,0.3
				c0-0.1-0.1-0.1-0.2-0.1c-0.1,0-0.2,0-0.3-0.1L8,12.4l-3.5,1.9c-0.1,0.1-0.2,0.1-0.3,0.1c-0.1,0-0.2,0-0.2-0.1
				c-0.1-0.1-0.1-0.2-0.1-0.3c0,0,0-0.1,0-0.2l0.7-4.1L1.7,6.9C1.6,6.8,1.5,6.7,1.5,6.5c0-0.2,0.1-0.3,0.4-0.3l3.9-0.6l1.7-3.7
				C7.7,1.6,7.9,1.5,8,1.5c0.1,0,0.3,0.1,0.4,0.3l1.7,3.8l3.9,0.6C14.4,6.1,14.5,6.3,14.5,6.5z"/>
		</g>
	</g>
</g>
</svg>
