<?xml version="1.0" encoding="utf-8"?>
<!-- Generator: Adobe Illustrator 22.0.1, SVG Export Plug-In . SVG Version: 6.00 Build 0)  -->
<svg version="1.1" id="Layer_1" xmlns="http://www.w3.org/2000/svg" xmlns:xlink="http://www.w3.org/1999/xlink" x="0px" y="0px"
	 viewBox="0 0 11 11" style="enable-background:new 0 0 11 11;" xml:space="preserve">
<style type="text/css">
	.st0{fill:#B2BCC8;}
</style>
<path id="Rectangle_3" class="st0" d="M1,4.5h9c0.6,0,1,0.4,1,1l0,0c0,0.6-0.4,1-1,1H1c-0.6,0-1-0.4-1-1l0,0C0,4.9,0.4,4.5,1,4.5z"
	/>
<path id="Rectangle_3_1_" class="st0" d="M6.5,1v9c0,0.6-0.4,1-1,1l0,0c-0.6,0-1-0.4-1-1V1c0-0.6,0.4-1,1-1l0,0C6.1,0,6.5,0.4,6.5,1
	z"/>
</svg>
