<?xml version="1.0" encoding="UTF-8"?>
<svg width="16px" height="16px" viewBox="0 0 16 16" version="1.1" xmlns="http://www.w3.org/2000/svg" xmlns:xlink="http://www.w3.org/1999/xlink">
    <!-- Generator: Sketch 50.2 (55047) - http://www.bohemiancoding.com/sketch -->
    <title>icon/lable_earlybird_blk</title>
    <desc>Created with Sketch.</desc>
    <defs></defs>
    <g id="icon/lable_earlybird_blk" stroke="none" stroke-width="1" fill="none" fill-rule="evenodd">
        <path d="M13.8011109,5.52276355 C13.7305036,5.64044234 13.635576,5.77577295 13.5163282,5.92875538 C13.5316264,6.01701447 13.5457479,6.10762714 13.556339,6.20059338 C13.6881392,7.30559722 13.4410138,8.89308411 12.8796859,9.88040916 C12.424269,10.6829785 11.5137994,11.653871 9.96242873,12.1010079 C9.33637756,12.2814487 8.58950951,12.3379346 7.72182456,12.2704654 C6.81099072,12.1786759 5.90721761,11.8833022 5.12465365,11.3996423 C4.24912345,10.8606735 3.53952034,10.1169435 3.06527482,9.24259011 C3.02997118,9.17904357 2.95818712,9.04724332 3.03232476,8.92132702 C3.08057306,8.83777508 3.17236252,8.79541071 3.30180919,8.79541071 C3.32181458,8.79541071 3.34417355,8.7965875 3.36770931,8.79894107 C3.59953653,8.81894647 3.82430302,8.82953756 4.03847842,8.82953756 C6.53326877,8.82953756 7.40291504,7.48211541 8.24431839,6.17823441 C8.87389992,5.20267724 9.46817781,4.28125231 10.6861533,4.04942509 C10.8603179,4.01647503 11.0309521,4 11.1945257,4 C11.8488197,4 12.4183851,4.26595407 12.8408519,4.77079608 C12.8643877,4.7978622 12.8855699,4.82610511 12.9079289,4.85434802 C13.1425019,4.8135527 13.3303957,4.79315505 13.4716103,4.79315505 C13.6834321,4.79315505 13.8599503,4.78138717 13.9658612,4.91083384 C14.0717721,5.04028051 13.9070218,5.34624536 13.8011109,5.52276355 Z M11.081554,6.23707381 C11.3415306,6.23707381 11.5522692,6.02535046 11.5522692,5.76635864 C11.5522692,5.50638207 11.3415306,5.29564348 11.081554,5.29564348 C10.8215774,5.29564348 10.6108389,5.50638207 10.6108389,5.76635864 C10.6108389,6.02633522 10.8215774,6.23707381 11.081554,6.23707381 Z" id="Combined-Shape" fill="#15202E" fill-rule="nonzero"></path>
    </g>
</svg>