<?xml version="1.0" encoding="utf-8"?>
<!-- Generator: Adobe Illustrator 16.0.0, SVG Export Plug-In . SVG Version: 6.00 Build 0)  -->
<!DOCTYPE svg PUBLIC "-//W3C//DTD SVG 1.1//EN" "http://www.w3.org/Graphics/SVG/1.1/DTD/svg11.dtd">
<svg version="1.1" id="Layer_1" xmlns="http://www.w3.org/2000/svg" xmlns:xlink="http://www.w3.org/1999/xlink" x="0px" y="0px"
	 width="11px" height="12px" viewBox="0 0 11 12" enable-background="new 0 0 11 12" xml:space="preserve">
<title>icon/list_more_view</title>
<desc>Created with Sketch.</desc>
<path id="path-1_1_" fill="#B2BCC8" d="M4.786,8.996L1.719,5.848c-0.279-0.287-0.731-0.287-1.01,0c-0.279,0.287-0.279,0.75,0,1.037
	l4.286,4.4c0.279,0.287,0.731,0.287,1.01,0l4.286-4.4c0.279-0.286,0.279-0.75,0-1.037s-0.731-0.287-1.01,0L6.215,8.996V1.233
	c0-0.269-0.141-0.503-0.351-0.631C5.757,0.537,5.633,0.5,5.5,0.5c-0.395,0-0.714,0.328-0.714,0.733V8.996z"/>
</svg>
