<?xml version="1.0" encoding="utf-8"?>
<!-- Generator: Adobe Illustrator 16.0.0, SVG Export Plug-In . SVG Version: 6.00 Build 0)  -->
<!DOCTYPE svg PUBLIC "-//W3C//DTD SVG 1.1//EN" "http://www.w3.org/Graphics/SVG/1.1/DTD/svg11.dtd">
<svg version="1.1" id="Layer_1" xmlns="http://www.w3.org/2000/svg" xmlns:xlink="http://www.w3.org/1999/xlink" x="0px" y="0px"
	 width="11px" height="10px" viewBox="0 0 11 10" enable-background="new 0 0 11 10" xml:space="preserve">
<title>icon/list_view</title>
<desc>Created with Sketch.</desc>
<g id="_x2D__xD83C__xDFAF_Symbols">
	<g id="_x40_Show-all" transform="translate(-213.000000, -20.000000)">
		<g id="내용" transform="translate(140.000000, 18.000000)">
			
				<g id="icon_x2F_list_x5F_view" transform="translate(78.500000, 7.000000) rotate(-90.000000) translate(-78.500000, -7.000000) translate(73.000000, 1.000000)">
			</g>
		</g>
	</g>
</g>
<path id="path-1_1_" fill="#B2BCC8" d="M8.496,5.715L5.348,8.781c-0.287,0.279-0.287,0.73,0,1.01s0.75,0.279,1.037,0l4.4-4.285
	c0.287-0.279,0.287-0.732,0-1.011l-4.4-4.286c-0.285-0.279-0.75-0.279-1.037,0s-0.287,0.73,0,1.01l3.148,3.066H0.732
	c-0.269,0-0.502,0.141-0.631,0.352C0.037,4.743,0,4.867,0,5c0,0.395,0.328,0.715,0.732,0.715H8.496z"/>
</svg>
