<?xml version="1.0" encoding="UTF-8"?>
<svg width="51px" height="14px" viewBox="0 0 51 14" version="1.1" xmlns="http://www.w3.org/2000/svg" xmlns:xlink="http://www.w3.org/1999/xlink">
    <!-- Generator: Sketch 50.2 (55047) - http://www.bohemiancoding.com/sketch -->
    <title>icon/logo_sssd</title>
    <desc>Created with Sketch.</desc>
    <defs></defs>
    <g id="ðŸ’ˆì›¹-ëª¨ë°”ì¼-375" stroke="none" stroke-width="1" fill="none" fill-rule="evenodd">
        <g id="í™ˆ-[All]" transform="translate(-162.000000, -93.000000)" fill="#212121">
            <g id="ì†œì”¨ë‹¹-ì‹¬í”Œë¡œê³ " transform="translate(160.500000, 86.500000)">
                <g id="icon/logo_sssd" transform="translate(0.909091, 6.500000)">
                    <path d="M12.9780735,1.17284037 L21.7534692,10.1194178 L27.6249201,1.41463375 C27.8632561,1.06128615 28.2607824,0.879526652 28.6575219,0.900451669 C29.0542615,0.879526652 29.4517878,1.06128615 29.6901237,1.41463375 L32.1283315,5.02942537 L34.5665392,1.41463375 C34.8106461,1.05273032 35.2217459,0.870825144 35.6279569,0.902328623 C36.0341678,0.870825144 36.4452676,1.05273032 36.6893745,1.41463375 L42.9635266,10.7164468 L48.2436965,10.7164468 L42.9505558,2.86904293 C42.5892598,2.33339952 42.7305962,1.60628642 43.2662397,1.24499037 C43.8018831,0.883694325 44.5289962,1.02503079 44.8902922,1.56067421 L51.3453318,11.1306639 C51.7066278,11.6663073 51.5652914,12.3934204 51.0296479,12.7547165 C50.9971704,12.7766229 50.9639889,12.7966814 50.9302277,12.8149163 C50.7128569,12.9669781 50.448284,13.0561916 50.1628742,13.0561916 L42.3458941,13.0561916 C41.8931302,13.0561916 41.5004399,12.7989858 41.305966,12.4227167 C41.2697204,12.3824546 41.2358385,12.3391899 41.2046777,12.2929922 L35.6279569,4.02516356 L33.5394526,7.12149847 L36.1451633,10.9846234 C36.5064593,11.5202669 36.3651229,12.24738 35.8294795,12.608676 C35.293836,12.9699721 34.5667229,12.8286356 34.2054269,12.2929922 L32.1283315,9.21357157 L30.051236,12.2929922 C29.68994,12.8286356 28.9628269,12.9699721 28.4271835,12.608676 C27.8915401,12.24738 27.7502036,11.5202669 28.1114996,10.9846234 L30.7172103,7.12149847 L28.6575219,4.0678848 L23.1096169,12.2929922 C23.0486972,12.3833094 22.977377,12.4624162 22.8983278,12.5297932 C22.8578725,12.5911113 22.8106654,12.6492735 22.7567116,12.7032274 C22.756666,12.703273 22.7566203,12.7033186 22.7565747,12.7033642 C22.3296811,13.1301067 21.6376722,13.1299841 21.2109298,12.7030905 L11.8909664,3.37982494 L2.41962707,12.6981246 C2.0093723,13.1017504 1.35040226,13.0990668 0.943448472,12.692113 C0.536455115,12.2851196 0.533660923,11.62612 0.937188362,11.2156899 L10.8733363,1.10957851 C11.1215062,0.819866321 11.4894865,0.636363636 11.9002042,0.636363636 C12.3400714,0.636363636 12.7309196,0.846837814 12.9780735,1.17284037 Z" id="Combined-Shape"></path>
                </g>
            </g>
        </g>
    </g>
</svg>