<?xml version="1.0" encoding="utf-8"?>
<!-- Generator: Adobe Illustrator 22.0.1, SVG Export Plug-In . SVG Version: 6.00 Build 0)  -->
<svg version="1.1" id="Layer_1" xmlns="http://www.w3.org/2000/svg" xmlns:xlink="http://www.w3.org/1999/xlink" x="0px" y="0px"
	 viewBox="0 0 50 50" style="enable-background:new 0 0 50 50;" xml:space="preserve">
<style type="text/css">
	.st0{fill:#212121;}
</style>
<g id="icon_main_noti_home" transform="translate(-5.033 -11.5)">
	<path id="Combined_Shape" class="st0" d="M36.5,45c-4.7,0-8.5-3.8-8.5-8.5s3.8-8.5,8.5-8.5s8.5,3.8,8.5,8.5S41.2,45,36.5,45z
		 M37.7,38.6c-0.4,0-0.6,0.3-0.6,0.6c0,0.4,0.3,0.6,0.6,0.6l0,0h1.7c0.4,0,0.6-0.3,0.6-0.6c0-0.4-0.3-0.6-0.6-0.6H37.7z M42,36.1
		c-0.4,0-0.6,0.3-0.6,0.6v0.4c0,0.4,0.3,0.6,0.7,0.6c0.3,0,0.6-0.3,0.6-0.6v-0.4C42.6,36.4,42.3,36.1,42,36.1z M35.2,36.1
		c-0.4,0-0.6,0.3-0.6,0.6v0.4c0,0.4,0.3,0.6,0.6,0.6s0.6-0.3,0.6-0.6v-0.4C35.8,36.4,35.5,36.1,35.2,36.1L35.2,36.1z"/>
	<path id="Combined_Shape-2" class="st0" d="M23.6,45c-4.7,0-8.5-3.8-8.5-8.5s3.8-8.5,8.5-8.5c1.9,0,3.8,0.6,5.3,1.8
		c-3.6,3.7-3.6,9.6,0,13.3C27.4,44.4,25.5,45,23.6,45z M20.5,35c-0.6,0-1,0.4-1,1v1c0,0.6,0.4,1,1,1h0.3c0.6,0,1-0.4,1-1v-1
		c0-0.6-0.4-1-1-1H20.5z M24.5,32.7c-0.4,0-0.6,0.3-0.6,0.6v0.4c0,0.4,0.3,0.6,0.7,0.6c0.3,0,0.6-0.3,0.6-0.6v-0.4
		C25.1,33,24.8,32.7,24.5,32.7z M17.7,32.7c-0.4,0-0.6,0.3-0.6,0.6v0.4c0,0.4,0.3,0.6,0.6,0.6c0.4,0,0.6-0.3,0.6-0.6v-0.4
		C18.3,33,18,32.7,17.7,32.7z"/>
</g>
</svg>
