<?xml version="1.0" encoding="UTF-8"?>
<svg width="40px" height="40px" viewBox="0 0 40 40" version="1.1" xmlns="http://www.w3.org/2000/svg" xmlns:xlink="http://www.w3.org/1999/xlink">
    <!-- Generator: Sketch 50.2 (55047) - http://www.bohemiancoding.com/sketch -->
    <title>icon/main_menu_launge_on</title>
    <desc>Created with Sketch.</desc>
    <defs></defs>
    <g id="icon/main_menu_launge_on" stroke="none" stroke-width="1" fill="none" fill-rule="evenodd">
        <g id="icon" transform="translate(0.000000, 0.000000)" fill="#212121">
            <path d="M20,10.39891 C25.5502392,10.39891 30,14.2266612 30,19.0591971 C30,23.891733 26.3728455,27.7267104 20,27.8023977 C19.74122,27.8054712 19.3509049,27.8054712 18.8290549,27.8023977 C17.0800095,28.8858572 16.0041621,29.5095448 15.6015129,29.6734605 C14.3532926,30.1816022 13.3023064,30.3878596 12.7662961,30.3878596 C11.5667172,30.3878596 11.5667172,29.5263222 11.9986308,28.9138689 L13.8277512,25.9491493 C11.4832536,24.3702019 10,21.8821636 10,19.107044 C10,14.2745081 14.4976077,10.39891 20,10.39891 Z M21.5,22.75 C21.5,22.3357864 21.1642136,22 20.75,22 L18.75,22 C18.3357864,22 18,22.3357864 18,22.75 C18,23.1642136 18.3357864,23.5 18.75,23.5 L20.75,23.5 C21.1642136,23.5 21.5,23.1642136 21.5,22.75 Z M15.75,19 C15.3357864,19 15,19.3357864 15,19.75 L15,20.25 C15,20.6642136 15.3357864,21 15.75,21 C16.1642136,21 16.5,20.6642136 16.5,20.25 L16.5,19.75 C16.5,19.3357864 16.1642136,19 15.75,19 Z M23.75,19 C23.3357864,19 23,19.3357864 23,19.75 L23,20.25 C23,20.6642136 23.3357864,21 23.75,21 C24.1642136,21 24.5,20.6642136 24.5,20.25 L24.5,19.75 C24.5,19.3357864 24.1642136,19 23.75,19 Z" id="Combined-Shape"></path>
        </g>
    </g>
</svg>