<?xml version="1.0" encoding="UTF-8"?>
<svg width="40px" height="40px" viewBox="0 0 40 40" version="1.1" xmlns="http://www.w3.org/2000/svg" xmlns:xlink="http://www.w3.org/1999/xlink">
    <!-- Generator: Sketch 50.2 (55047) - http://www.bohemiancoding.com/sketch -->
    <title>icon/main_menu_search_on</title>
    <desc>Created with Sketch.</desc>
    <defs></defs>
    <g id="icon/main_menu_search_on" stroke="none" stroke-width="1" fill="none" fill-rule="evenodd">
        <g id="icon" transform="translate(0.000000, 0.000000)" fill="#212121">
            <path d="M25.6206382,23.8372164 L29.3558915,27.5724697 C29.8440469,28.0606251 29.8440469,28.8520813 29.3558915,29.3402367 C28.8677361,29.8283921 28.0762799,29.8283921 27.5881245,29.3402367 L23.8575007,25.6096129 C22.4404049,26.6673992 20.6823324,27.2936468 18.777992,27.2936468 C14.0835716,27.2936468 10.277992,23.4880672 10.277992,18.7936468 C10.277992,14.0992264 14.0835716,10.2936468 18.777992,10.2936468 C23.4724124,10.2936468 27.277992,14.0992264 27.277992,18.7936468 C27.277992,20.6819211 26.6622667,22.426385 25.6206382,23.8372164 Z M23.2786218,22.7616697 C24.2117919,21.7040586 24.777992,20.3149743 24.777992,18.7936468 C24.777992,15.4799383 22.0917005,12.7936468 18.777992,12.7936468 C15.4642835,12.7936468 12.777992,15.4799383 12.777992,18.7936468 C12.777992,22.1073553 15.4642835,24.7936468 18.777992,24.7936468 C20.3126201,24.7936468 21.7126826,24.2175031 22.7736781,23.2697171 C22.8302156,23.1642775 22.9029664,23.0652397 22.9919305,22.9762757 C23.0789936,22.8892125 23.1757045,22.8176772 23.2786218,22.7616697 Z" id="Combined-Shape"></path>
        </g>
    </g>
</svg>