<?xml version="1.0" encoding="utf-8"?>
<!-- Generator: Adobe Illustrator 22.0.1, SVG Export Plug-In . SVG Version: 6.00 Build 0)  -->
<svg version="1.1" id="Layer_1" xmlns="http://www.w3.org/2000/svg" xmlns:xlink="http://www.w3.org/1999/xlink" x="0px" y="0px"
	 viewBox="0 0 30 30" style="enable-background:new 0 0 30 30;" xml:space="preserve">
<style type="text/css">
	.st0{fill:#212121;}
</style>
<title>icon/page_map_blk</title>
<desc>Created with Sketch.</desc>
<g id="icon">
	<g id="Combined-Shape">
		<path id="path-1_1_" class="st0" d="M18,22.5l-5.3-2.7l-4.6,2.6C7.6,22.8,7,22.4,7,21.9V10.5c0-0.3,0.1-0.5,0.4-0.6l4.9-2.8
			C12.4,7,12.5,7,12.7,7c0.1,0,0.2,0,0.3,0.1l5.3,2.7l4.6-2.6C23.4,6.8,24,7.2,24,7.7V19c0,0.3-0.1,0.5-0.4,0.6l-4.9,2.8
			c-0.1,0.1-0.2,0.1-0.4,0.1C18.2,22.6,18.1,22.6,18,22.5z M17.6,11l-4.3-2.1v9.7l4.3,2.1V11z M19,11v9.7l3.5-2V8.9L19,11z M12,8.9
			l-3.5,2v9.7l3.5-2V8.9z"/>
	</g>
</g>
</svg>
