<?xml version="1.0" encoding="UTF-8"?>
<svg width="30px" height="30px" viewBox="0 0 30 30" version="1.1" xmlns="http://www.w3.org/2000/svg" xmlns:xlink="http://www.w3.org/1999/xlink">
    <!-- Generator: Sketch 50.2 (55047) - http://www.bohemiancoding.com/sketch -->
    <title>icon/page_cal_blk</title>
    <desc>Created with Sketch.</desc>
    <defs>
        <path d="M21.5,13 L21.5,10.75 C21.5,10.3357864 21.1642136,10 20.75,10 L19.25,10 L19.25,10.75 C19.25,11.1642136 18.9142136,11.5 18.5,11.5 C18.0857864,11.5 17.75,11.1642136 17.75,10.75 L17.75,10 L13.25,10 L13.25,10.75 C13.25,11.1642136 12.9142136,11.5 12.5,11.5 C12.0857864,11.5 11.75,11.1642136 11.75,10.75 L11.75,10 L10.25,10 C9.83578644,10 9.5,10.3357864 9.5,10.75 L9.5,13 L21.5,13 Z M21.5,14.5 L9.5,14.5 L9.5,21.25 C9.5,21.6642136 9.83578644,22 10.25,22 L20.75,22 C21.1642136,22 21.5,21.6642136 21.5,21.25 L21.5,14.5 Z M13.25,8.5 L17.75,8.5 L17.75,7.75 C17.75,7.33578644 18.0857864,7 18.5,7 C18.9142136,7 19.25,7.33578644 19.25,7.75 L19.25,8.5 L20.75,8.5 C21.9926407,8.5 23,9.50735931 23,10.75 L23,21.25 C23,22.4926407 21.9926407,23.5 20.75,23.5 L10.25,23.5 C9.00735931,23.5 8,22.4926407 8,21.25 L8,10.75 C8,9.50735931 9.00735931,8.5 10.25,8.5 L11.75,8.5 L11.75,7.75 C11.75,7.33578644 12.0857864,7 12.5,7 C12.9142136,7 13.25,7.33578644 13.25,7.75 L13.25,8.5 Z" id="path-1"></path>
    </defs>
    <g id="icon/page_cal_blk" stroke="none" stroke-width="1" fill="none" fill-rule="evenodd">
        <g id="icon">
            <mask id="mask-2" fill="white">
                <use xlink:href="#path-1"></use>
            </mask>
            <use id="Combined-Shape" fill="#15202E" fill-rule="nonzero" xlink:href="#path-1"></use>
            <rect id="color" fill="#212121" mask="url(#mask-2)" x="0" y="0" width="30" height="30"></rect>
        </g>
    </g>
</svg>