<?xml version="1.0" encoding="UTF-8"?>
<svg width="30px" height="30px" viewBox="0 0 30 30" version="1.1" xmlns="http://www.w3.org/2000/svg" xmlns:xlink="http://www.w3.org/1999/xlink">
    <!-- Generator: Sketch 50.2 (55047) - http://www.bohemiancoding.com/sketch -->
    <title>icon/seach_bar_location_30</title>
    <desc>Created with Sketch.</desc>
    <defs></defs>
    <g id="icon/seach_bar_location_30" stroke="none" stroke-width="1" fill="none" fill-rule="evenodd">
        <path d="M15,21.905324 C15.1435802,21.7994044 15.2908309,21.6881682 15.4407281,21.5722623 C16.3600583,20.8614036 17.2304712,20.0918821 18.0159805,19.2867456 C20.3627694,16.8813184 21.6,14.5358576 21.6,12.3972793 C21.5999999,8.86683289 18.6476672,6 15,6 C11.3523328,6 8.40000005,8.86683289 8.4,12.3972793 C8.4,14.5358576 9.63723057,16.8813184 11.9840195,19.2867456 C12.7695288,20.0918821 13.6399417,20.8614036 14.5592719,21.5722623 C14.7091691,21.6881682 14.8564198,21.7994044 15,21.905324 Z M15.0699999,14.6799999 C13.8439278,14.6799999 12.85,13.686072 12.85,12.4599999 C12.85,11.2339278 13.8439278,10.24 15.0699999,10.24 C16.296072,10.24 17.2899999,11.2339278 17.2899999,12.4599999 C17.2899999,13.686072 16.296072,14.6799999 15.0699999,14.6799999 Z" id="shape" stroke="#212121" stroke-width="0.8"></path>
    </g>
</svg>