<?xml version="1.0" encoding="UTF-8"?>
<svg width="30px" height="30px" viewBox="0 0 30 30" version="1.1" xmlns="http://www.w3.org/2000/svg" xmlns:xlink="http://www.w3.org/1999/xlink">
    <!-- Generator: Sketch 50.2 (55047) - http://www.bohemiancoding.com/sketch -->
    <title>icon/seach_bar_gps_30</title>
    <desc>Created with Sketch.</desc>
    <defs>
        <path d="M7.44999999,13.7239129 C7.44999999,14.0306438 7.29329965,13.9990805 7.09999999,13.9990805 C6.90670033,13.9990805 6.75,14.0306438 6.75,13.7239129 L6.75,11.5023708 L7.44999999,11.5023708 L7.44999999,13.7239129 Z M7.34999999,0.276087116 L7.34999999,2.49762919 L6.65000001,2.49762919 L6.65000001,0.276087116 C6.65000001,-0.0306438361 6.80670034,0.000919472015 7,0.000919472015 C7.19329966,0.000919472015 7.34999999,-0.0306438361 7.34999999,0.276087116 Z M0.276087116,6.72950403 L2.49762919,6.72950403 L2.49762919,7.42950401 L0.276087116,7.42950401 C-0.0306438361,7.42950401 0.000919472015,7.27280368 0.000919472015,7.07950402 C0.000919472015,6.88620436 -0.0306438361,6.72950403 0.276087116,6.72950403 Z M13.7239129,6.72950403 C14.0306438,6.72950403 13.9990805,6.88620436 13.9990805,7.07950402 C13.9990805,7.27280368 14.0306438,7.42950401 13.7239129,7.42950401 L11.5023708,7.42950401 L11.5023708,6.72950403 L13.7239129,6.72950403 Z" id="path-1"></path>
    </defs>
    <g id="icon/seach_bar_gps_30" stroke="none" stroke-width="1" fill="none" fill-rule="evenodd">
        <g id="icon" transform="translate(8.000000, 8.000000)">
            <path d="M7,14 C3.13400675,14 0,10.8659932 0,7 C0,3.13400675 3.13400675,0 7,0 C10.8659932,0 14,3.13400675 14,7 C14,10.8659932 10.8659932,14 7,14 Z M7,13.25 C10.4517797,13.25 13.25,10.4517797 13.25,7 C13.25,3.54822031 10.4517797,0.75 7,0.75 C3.54822031,0.75 0.75,3.54822031 0.75,7 C0.75,10.4517797 3.54822031,13.25 7,13.25 Z" id="Combined-Shape" fill="#212121"></path>
            <mask id="mask-2" fill="white">
                <use xlink:href="#path-1"></use>
            </mask>
            <use id="Combined-Shape" fill="#212121" fill-rule="nonzero" xlink:href="#path-1"></use>
        </g>
    </g>
</svg>