<?xml version="1.0" encoding="UTF-8"?>
<svg width="30px" height="30px" viewBox="0 0 30 30" version="1.1" xmlns="http://www.w3.org/2000/svg" xmlns:xlink="http://www.w3.org/1999/xlink">
    <!-- Generator: Sketch 50.2 (55047) - http://www.bohemiancoding.com/sketch -->
    <title>icon/seach_bar_gps_30_orange</title>
    <desc>Created with Sketch.</desc>
    <defs>
        <path d="M22.8552202,14.4368802 C22.5799128,10.5359573 19.4634229,7.41946747 15.5625,7.14416002 L15.5625,9.37221196 C15.5625,9.78642552 15.3106602,10.0506202 15,10.0506202 C14.6893398,10.0506202 14.4375,9.78642552 14.4375,9.37221196 L14.4375,7.14416002 C10.5365771,7.41946747 7.42008724,10.5359573 7.14477978,14.4368802 L9.48533161,14.4368802 C9.89954517,14.4368802 10.1637398,14.6887201 10.1637398,14.9993802 C10.1637398,15.3100404 9.89954517,15.5618802 9.48533161,15.5618802 L7.14477978,15.5618802 C7.42008724,19.4628031 10.5365771,22.579293 14.4375,22.8546005 L14.4375,20.627788 C14.4375,20.2135745 14.6893398,19.9493798 15,19.9493798 C15.3106602,19.9493798 15.5625,20.2135745 15.5625,20.627788 L15.5625,22.8546005 C19.4634229,22.579293 22.5799128,19.4628031 22.8552202,15.5618802 L20.5159074,15.5618802 C20.1016938,15.5618802 19.8374991,15.3100404 19.8374991,14.9993802 C19.8374991,14.6887201 20.1016938,14.4368802 20.5159074,14.4368802 L22.8552202,14.4368802 Z M15.2667241,6.00325688 C20.1139142,6.14433308 24,10.1180347 24,14.9993802 C24,19.8745279 20.1237764,23.8443349 15.2851832,23.9949477 C15.2024425,24.0040659 15.1061297,23.9994771 15.0032775,23.9993797 C15.002185,23.99938 15.0010925,23.9993802 15,23.9993802 C14.9989075,23.9993802 14.997815,23.99938 14.9967225,23.9993797 C14.8938703,23.9994771 14.7975575,24.0040659 14.7148168,23.9949477 C9.87622356,23.8443349 6,19.8745279 6,14.9993802 C6,10.1180347 9.88608578,6.14433308 14.7332759,6.00325688 C14.786975,5.99869087 14.8459219,5.99909704 14.9083243,5.99983749 C14.9388467,5.9995329 14.9694055,5.99938024 15,5.99938024 C15.0305945,5.99938024 15.0611533,5.9995329 15.0916757,5.99983749 C15.1540781,5.99909704 15.213025,5.99869087 15.2667241,6.00325688 Z" id="path-1"></path>
    </defs>
    <g id="icon/seach_bar_gps_30_orange" stroke="none" stroke-width="1" fill="none" fill-rule="evenodd">
        <g id="icon_gps">
            <mask id="mask-2" fill="white">
                <use xlink:href="#path-1"></use>
            </mask>
            <use id="Combined-Shape" fill="#FF6A56" fill-rule="nonzero" xlink:href="#path-1"></use>
            <circle id="Oval-2" fill="#FF5862" mask="url(#mask-2)" cx="15" cy="15" r="15"></circle>
        </g>
    </g>
</svg>