<svg xmlns="http://www.w3.org/2000/svg" viewBox="0 0 62 62">
  <defs>
    <style>
      .cls-1 {
        fill: #ffe812;
      }
    </style>
  </defs>
  <g id="그룹_4" data-name="그룹 4" transform="translate(0 0)">
    <circle id="Oval_2" data-name="Oval 2" class="cls-1" cx="31" cy="31" r="31"/>
    <g id="kakao" transform="translate(13 16.382)">
      <path id="Shape" d="M0,2.915H2.047L1.024,0,0,2.915Z" transform="translate(12.995 12.388)"/>
      <path id="Shape-2" data-name="Shape" d="M6.9,32.8a.522.522,0,0,1-.212-.044.453.453,0,0,1-.162-.416c.064-.408,1.569-5.609,1.814-6.446C3.117,23.312,0,18.87,0,14.018A12.635,12.635,0,0,1,5.208,4.106,20.315,20.315,0,0,1,17.781,0,20.315,20.315,0,0,1,30.354,4.106a12.635,12.635,0,0,1,5.208,9.913,12.635,12.635,0,0,1-5.208,9.913,20.315,20.315,0,0,1-12.573,4.106,23.342,23.342,0,0,1-3.155-.219c-.151.1-.372.256-.7.482A81.368,81.368,0,0,1,7.108,32.76.552.552,0,0,1,6.9,32.8Zm5.563-15.686h3.128l.508,1.327a.827.827,0,0,0,.743.459.974.974,0,0,0,.111-.007h.034a1.417,1.417,0,0,0,.616-.141c.282-.127.553-.482.24-1.454l-2.45-6.459a1.555,1.555,0,0,0-1.37-1.01,1.554,1.554,0,0,0-1.369,1.01L10.2,17.3c-.312.971-.042,1.326.24,1.454a1.433,1.433,0,0,0,.617.142H11.1a.93.93,0,0,0,.108.007.823.823,0,0,0,.74-.459l.515-1.326ZM26.571,15.3h0l2.405,3.183a1.021,1.021,0,0,0,.816.41H29.8a1.008,1.008,0,0,0,1.012-.911v.007a1.04,1.04,0,0,0-.233-.763l-2.526-3.346L30.4,11.548a.822.822,0,0,0,.226-.621,1.087,1.087,0,0,0-.3-.656,1,1,0,0,0-.706-.3H29.6a.794.794,0,0,0-.558.226l-2.824,2.859v-2.2a1.03,1.03,0,0,0-2.054,0v7.037a1.03,1.03,0,0,0,2.054,0V15.656l.354-.353ZM5.323,9.833a1,1,0,0,0,0,2.005h1.6v6.1a1.03,1.03,0,0,0,2.054,0v-6.1h1.61a1,1,0,0,0,0-2.005ZM19.567,9.8a1.06,1.06,0,0,0-1.058,1.059v6.96a.958.958,0,0,0,.958.939h3.313l.021.007a.939.939,0,0,0,0-1.877H20.626V10.857A1.06,1.06,0,0,0,19.567,9.8Z"/>
    </g>
  </g>
</svg>
