<?xml version="1.0" encoding="UTF-8"?>
<svg width="24px" height="24px" viewBox="0 0 24 24" version="1.1" xmlns="http://www.w3.org/2000/svg" xmlns:xlink="http://www.w3.org/1999/xlink">
    <!-- Generator: Sketch 50.2 (55047) - http://www.bohemiancoding.com/sketch -->
    <title>icon/thumb_location_off</title>
    <desc>Created with Sketch.</desc>
    <defs></defs>
    <g id="icon/thumb_location_off" stroke="none" stroke-width="1" fill="none" fill-rule="evenodd">
        <g id="ic_thumb_location" transform="translate(1.000000, 0.000000)">
            <polygon id="guide" points="0 0 21.3623188 0 21.3623188 21.3623188 0 21.3623188"></polygon>
            <path d="M11.7180463,19.6086988 C12.6533201,18.855379 13.5888939,18.0036795 14.4595434,17.074092 C16.8917848,14.4772016 18.3333333,11.8039702 18.3333333,9.25099923 C18.3333333,5.15433546 15.0500881,1.83333333 11,1.83333333 C6.94991188,1.83333333 3.66666673,5.15433546 3.66666667,9.25099923 C3.66666667,11.8039702 5.10821523,14.4772016 7.54045663,17.074092 C8.41110609,18.0036795 9.34667985,18.855379 10.2819537,19.6086988 C10.4542457,19.747472 10.7255716,19.9559763 10.8808324,20.0749944 C10.9556227,20.1323263 11.0513421,20.134735 11.1292575,20.0749944 C11.2852607,19.9553811 11.5477927,19.7458302 11.7180463,19.6086988 Z" id="border" fill="#FFFFFF"></path>
            <path d="M11.5385347,16.9981907 C11.3470699,17.1524068 11.1665892,17.2921844 11,17.4166667 C10.8334108,17.2921844 10.6529301,17.1524068 10.4614653,16.9981907 C9.76000989,16.4332009 9.05832957,15.7944263 8.40534247,15.0972357 C6.58116142,13.1495679 5.5,11.1446443 5.5,9.22991609 C5.50000005,6.15741826 7.96243391,3.66666667 11,3.66666667 C14.0375661,3.66666667 16.5,6.15741826 16.5,9.22991609 C16.5,11.1446443 15.4188386,13.1495679 13.5946575,15.0972357 C12.9416704,15.7944263 12.2399901,16.4332009 11.5385347,16.9981907 Z M11,11.2291667 C12.1390873,11.2291667 13.0625,10.305754 13.0625,9.16666667 C13.0625,8.02757937 12.1390873,7.10416667 11,7.10416667 C9.8609127,7.10416667 8.9375,8.02757937 8.9375,9.16666667 C8.9375,10.305754 9.8609127,11.2291667 11,11.2291667 Z" id="shape" fill="#B2BCC8"></path>
        </g>
    </g>
</svg>