<?xml version="1.0" encoding="UTF-8"?>
<svg width="16px" height="16px" viewBox="0 0 16 16" version="1.1" xmlns="http://www.w3.org/2000/svg" xmlns:xlink="http://www.w3.org/1999/xlink">
    <!-- Generator: Sketch 50.2 (55047) - http://www.bohemiancoding.com/sketch -->
    <title>icon/thumb_location_16</title>
    <desc>Created with Sketch.</desc>
    <defs></defs>
    <g id="icon/thumb_location_16" stroke="none" stroke-width="1" fill="none" fill-rule="evenodd">
        <g id="icon" transform="translate(2.500000, 1.400000)" fill="#FFFFFF">
            <path d="M6.00487629,12.6298649 C5.82537801,12.7759643 5.65617736,12.9083853 5.5,13.0263158 C5.34382264,12.9083853 5.17462199,12.7759643 4.99512371,12.6298649 C4.33750927,12.0946114 3.67968397,11.4894565 3.06750857,10.8289601 C1.35733883,8.98380115 0.34375,7.08439986 0.34375,5.27044682 C0.343750042,2.35965941 2.65228179,-1.46284288e-16 5.5,0 C8.34771821,0 10.65625,2.35965941 10.65625,5.27044682 C10.65625,7.08439986 9.64266117,8.98380115 7.93249143,10.8289601 C7.32031603,11.4894565 6.66249073,12.0946114 6.00487629,12.6298649 Z M5.49140625,7.10657895 C6.55455439,7.10657895 7.41640625,6.24472709 7.41640625,5.18157895 C7.41640625,4.1184308 6.55455439,3.25657895 5.49140625,3.25657895 C4.42825811,3.25657895 3.56640625,4.1184308 3.56640625,5.18157895 C3.56640625,6.24472709 4.42825811,7.10657895 5.49140625,7.10657895 Z" id="shape"></path>
        </g>
    </g>
</svg>