<?xml version="1.0" encoding="utf-8"?>
<!-- Generator: Adobe Illustrator 16.0.0, SVG Export Plug-In . SVG Version: 6.00 Build 0)  -->
<!DOCTYPE svg PUBLIC "-//W3C//DTD SVG 1.1//EN" "http://www.w3.org/Graphics/SVG/1.1/DTD/svg11.dtd">
<svg version="1.1" id="Layer_1" xmlns="http://www.w3.org/2000/svg" xmlns:xlink="http://www.w3.org/1999/xlink" x="0px" y="0px"
	 width="16px" height="16px" viewBox="0 0 16 16" enable-background="new 0 0 16 16" xml:space="preserve">
<title>icon/thumb_location_16</title>
<desc>Created with Sketch.</desc>
<g id="icon_x2F_thumb_x5F_location_x5F_16">
	<g id="icon" transform="translate(2.500000, 1.400000)">
		<path id="shape" fill="#212121" d="M6.108,13.968c-0.217,0.177-0.42,0.337-0.608,0.479c-0.188-0.142-0.392-0.302-0.608-0.479
			c-0.792-0.645-1.584-1.373-2.322-2.169c-2.06-2.223-3.281-4.511-3.281-6.696c0-3.506,2.781-6.35,6.212-6.35
			s6.212,2.843,6.212,6.35c0,2.186-1.221,4.474-3.281,6.696C7.693,12.595,6.9,13.324,6.108,13.968z M5.489,7.316
			c1.281,0,2.319-1.039,2.319-2.32S6.771,2.677,5.489,2.677c-1.28,0-2.319,1.038-2.319,2.319S4.209,7.316,5.489,7.316z"/>
	</g>
</g>
</svg>
