<?xml version="1.0" encoding="UTF-8"?>
<svg width="24px" height="24px" viewBox="0 0 24 24" version="1.1" xmlns="http://www.w3.org/2000/svg" xmlns:xlink="http://www.w3.org/1999/xlink">
    <!-- Generator: Sketch 50.2 (55047) - http://www.bohemiancoding.com/sketch -->
    <title>icon/title_instagram_24</title>
    <desc>Created with Sketch.</desc>
    <defs></defs>
    <g id="icon/title_instagram_24" stroke="none" stroke-width="1" fill="none" fill-rule="evenodd">
        <g id="icon_instagram" fill="#212121" fill-rule="nonzero">
            <g id="Group" transform="translate(2.000000, 2.000000)">
                <path d="M10,5 C7.265625,5 5,7.2265625 5,10 C5,12.7734375 7.2265625,15 10,15 C12.7734375,15 15,12.734375 15,10 C15,7.265625 12.734375,5 10,5 Z M10,13.203125 C8.2421875,13.203125 6.796875,11.7578125 6.796875,10 C6.796875,8.2421875 8.2421875,6.796875 10,6.796875 C11.7578125,6.796875 13.203125,8.2421875 13.203125,10 C13.203125,11.7578125 11.7578125,13.203125 10,13.203125 Z" id="Shape"></path>
                <circle id="Oval" cx="15.4" cy="4.96" r="1.16"></circle>
                <path d="M18.3870968,1.65322581 C17.3387097,0.564516129 15.8467742,0 14.1532258,0 L5.84677419,0 C2.33870968,0 0,2.33870968 0,5.84677419 L0,14.1129032 C0,15.8467742 0.564516129,17.3387097 1.69354839,18.4274194 C2.78225806,19.4758065 4.23387097,20 5.88709677,20 L14.1129032,20 C15.8467742,20 17.2983871,19.4354839 18.3467742,18.4274194 C19.4354839,17.3790323 20,15.8870968 20,14.1532258 L20,5.84677419 C20,4.15322581 19.4354839,2.7016129 18.3870968,1.65322581 Z M17.0564516,17.0967742 C16.3306452,17.7822581 15.3225806,18.1451613 14.1129032,18.1451613 L5.88709677,18.1451613 C4.67741935,18.1451613 3.66935484,17.7822581 2.94354839,17.0967742 C2.21774194,16.3709677 1.85483871,15.3629032 1.85483871,14.1129032 L1.85483871,5.84677419 C1.85483871,4.63709677 2.21774194,3.62903226 2.94354839,2.90322581 C3.62903226,2.21774194 4.67741935,1.85483871 5.88709677,1.85483871 L14.1935484,1.85483871 C15.4032258,1.85483871 16.4112903,2.21774194 17.1370968,2.94354839 C17.8225806,3.66935484 18.2258065,4.67741935 18.2258065,5.84677419 L18.2258065,14.1532258 C18.2258065,15.4032258 17.7822581,16.4112903 17.0564516,17.0967742 Z" id="Shape"></path>
            </g>
        </g>
    </g>
</svg>