<?xml version="1.0" encoding="utf-8"?>
<!-- Generator: Adobe Illustrator 16.0.0, SVG Export Plug-In . SVG Version: 6.00 Build 0)  -->
<!DOCTYPE svg PUBLIC "-//W3C//DTD SVG 1.1//EN" "http://www.w3.org/Graphics/SVG/1.1/DTD/svg11.dtd">
<svg version="1.1" id="Layer_1" xmlns="http://www.w3.org/2000/svg" xmlns:xlink="http://www.w3.org/1999/xlink" x="0px" y="0px"
	 width="30px" height="30px" viewBox="0 0 30 30" enable-background="new 0 0 30 30" xml:space="preserve">
<filter  width="108.3%" filterUnits="objectBoundingBox" x="-2.1%" y="-1.6%" height="106.2%" id="filter-3">
	<feOffset  dx="0.5" dy="0.5" result="shadowOffsetOuter1" in="SourceAlpha"></feOffset>
	<feColorMatrix  type="matrix" values="0 0 0 0 0   0 0 0 0 0   0 0 0 0 0  0 0 0 0.1 0" in="shadowOffsetOuter1"></feColorMatrix>
</filter>
<g>
	<path id="path-1" fill="#FFFFFF" d="M15,19.182l-4.814,3.668C9.689,23.228,9,22.85,9,22.199V9.4C9,8.074,10.007,7,11.25,7h7.5
		C19.992,7,21,8.074,21,9.4v12.799c0,0.65-0.689,1.028-1.186,0.65L15,19.182z"/>
</g>
<title>icon/page_bookmark_white_shadow</title>
<desc>Created with Sketch.</desc>
<g id="icon_x2F_page_x5F_bookmark_x5F_white_x5F_shadow">
	<g id="icon">
		<g id="Shape">
			<g filter="url(#filter-3)">
				<path id="path-1_3_" d="M15,19.182l-4.814,3.668C9.689,23.228,9,22.85,9,22.199V9.4C9,8.074,10.007,7,11.25,7h7.5
					C19.992,7,21,8.074,21,9.4v12.799c0,0.65-0.689,1.028-1.186,0.65L15,19.182z"/>
			</g>
			<g>
				<path id="path-1_2_" fill="#FFFFFF" d="M15,19.182l-4.814,3.668C9.689,23.228,9,22.85,9,22.199V9.4C9,8.074,10.007,7,11.25,7
					h7.5C19.992,7,21,8.074,21,9.4v12.799c0,0.65-0.689,1.028-1.186,0.65L15,19.182z"/>
			</g>
		</g>
	</g>
</g>
</svg>
