<?xml version="1.0" encoding="UTF-8"?>
<svg width="18px" height="17px" viewBox="0 0 18 17" version="1.1" xmlns="http://www.w3.org/2000/svg" xmlns:xlink="http://www.w3.org/1999/xlink">
    <!-- Generator: Sketch 50.2 (55047) - http://www.bohemiancoding.com/sketch -->
    <title>icon/review_write</title>
    <desc>Created with Sketch.</desc>
    <defs></defs>
    <g id="icon/review_write" stroke="none" stroke-width="1" fill="none" fill-rule="evenodd">
        <g id="write" fill="#FF5862" fill-rule="nonzero">
            <path d="M16.6,15.69 L0.61,15.69 C0.27862915,15.69 0.01,15.9586292 0.01,16.29 C0.0153527336,16.6191282 0.280871821,16.8846473 0.61,16.89 L16.61,16.89 C16.7691299,16.89 16.9217422,16.8267859 17.0342641,16.7142641 C17.1467859,16.6017422 17.21,16.4491299 17.21,16.29 C17.2045405,15.957018 16.9330268,15.6899552 16.6,15.69 Z" id="Shape"></path>
            <path d="M-2.82700634e-16,10.39 L-2.82700634e-16,13.24 C-0.00084642957,13.4047574 0.0639203107,13.5630761 0.18,13.68 C0.289470774,13.7949443 0.441267377,13.86 0.6,13.86 L3.43,13.86 C3.5884945,13.8588505 3.73986103,13.7939791 3.85,13.68 L13.64,3.89 C13.8711277,3.64992055 13.8711277,3.27007945 13.64,3.03 L10.84,0.18 C10.5999206,-0.0511276951 10.2200794,-0.0511276951 9.98,0.18 L7.98,2.18 L0.19,10 C0.0811460086,10.1136011 0.0171911626,10.2628291 0.01,10.42 L-2.82700634e-16,10.39 Z M10.4,1.46 L12.4,3.46 L11.28,4.54 L9.28,2.54 L10.4,1.46 Z M1.23,10.65 L8.44,3.43 L10.44,5.43 L3.2,12.61 L1.2,12.61 L1.23,10.65 Z" id="Shape"></path>
        </g>
    </g>
</svg>