<?xml version="1.0" encoding="utf-8"?>
<!-- Generator: Adobe Illustrator 22.0.1, SVG Export Plug-In . SVG Version: 6.00 Build 0)  -->
<svg version="1.1" id="Layer_1" xmlns="http://www.w3.org/2000/svg" xmlns:xlink="http://www.w3.org/1999/xlink" x="0px" y="0px"
	 viewBox="0 0 20 20" style="enable-background:new 0 0 20 20;" xml:space="preserve">
<style type="text/css">
	.st0{fill:#808080;}
</style>
<g>
	<path class="st0" d="M0.6,15.3c0,0.6,0.5,1.2,1.2,1.2h16.5c0.6,0,1.2-0.5,1.2-1.2V8.2H0.6V15.3z M12.9,10.6c0.5,0,0.9,0.2,1.2,0.5
		c0.3-0.3,0.7-0.5,1.2-0.5c1,0,1.8,0.8,1.8,1.8s-0.8,1.8-1.8,1.8c-0.5,0-0.9-0.2-1.2-0.5c-0.3,0.3-0.7,0.5-1.2,0.5
		c-1,0-1.8-0.8-1.8-1.8S12,10.6,12.9,10.6z M3.5,11.8h3.5c0.3,0,0.6,0.3,0.6,0.6s-0.3,0.6-0.6,0.6H3.5c-0.3,0-0.6-0.3-0.6-0.6
		S3.2,11.8,3.5,11.8z"/>
	<path class="st0" d="M18.2,3.5H1.8c-0.6,0-1.2,0.5-1.2,1.2v1.2h18.8V4.7C19.4,4.1,18.9,3.5,18.2,3.5z"/>
</g>
</svg>
