<?xml version="1.0" encoding="utf-8"?>
<!-- Generator: Adobe Illustrator 22.0.1, SVG Export Plug-In . SVG Version: 6.00 Build 0)  -->
<svg version="1.1" id="Layer_1" xmlns="http://www.w3.org/2000/svg" xmlns:xlink="http://www.w3.org/1999/xlink" x="0px" y="0px"
	 viewBox="0 0 20 20" style="enable-background:new 0 0 20 20;" xml:space="preserve">
<style type="text/css">
	.st0{fill:#808080;}
</style>
<g>
	<path class="st0" d="M12.3,13.7c-0.5-0.1-0.5-1.4-0.5-1.4s1.4-1.4,1.7-3.2c0.8,0,1.3-1.9,0.5-2.6c0-0.7,1-5.7-4-5.7
		c-5.1,0-4.1,4.9-4,5.7C5.2,7.2,5.7,9.1,6.5,9.1c0.3,1.8,1.7,3.2,1.7,3.2s0,1.3-0.5,1.4c-1.5,0.2-7.1,2.7-7.1,5.4h19
		C19.5,16.4,13.9,13.9,12.3,13.7L12.3,13.7z M12.3,13.7"/>
</g>
</svg>
