<?xml version="1.0" encoding="utf-8"?>
<!-- Generator: Adobe Illustrator 22.0.1, SVG Export Plug-In . SVG Version: 6.00 Build 0)  -->
<svg version="1.1" id="Layer_1" xmlns="http://www.w3.org/2000/svg" xmlns:xlink="http://www.w3.org/1999/xlink" x="0px" y="0px"
	 viewBox="0 0 130.2 45.4" style="enable-background:new 0 0 130.2 45.4;" xml:space="preserve">
<style type="text/css">
	.st0{fill:#E07061;}
	.st1{fill:#FFFFFF;}
</style>
<g>
	<g>
		<path class="st0" d="M72.7,33.3l2-20.6h7l2,20.6h-3.9L79.5,30H77l-0.2,3.3H72.7z M77.2,26.7h1.9l-0.9-10.5H78L77.2,26.7z"/>
		<path class="st0" d="M84.9,12.7h5.7c1.5,0,2.6,0.4,3.3,1.2c0.7,0.8,1.1,2,1.1,3.6v9.6c0,2-0.3,3.6-1.1,4.6c-0.7,1-1.9,1.5-3.6,1.5
			h-5.5L84.9,12.7L84.9,12.7z M89.7,29.6c0.8,0,1.1-0.4,1.1-1.1V17.9c0-0.5,0-0.8-0.1-1c-0.1-0.2-0.2-0.4-0.4-0.5
			c-0.2-0.1-0.5-0.1-0.9-0.1H89v13.4h0.7V29.6z"/>
		<path class="st0" d="M96.7,33.3V12.7h6.3l1.7,12.6l1.7-12.6h6.3v20.6H109V18.4l-2.4,14.9h-3.7l-2.5-14.9v14.9H96.7z"/>
		<path class="st0" d="M114.4,33.3V12.7h4v20.6C118.4,33.3,114.4,33.3,114.4,33.3z"/>
		<path class="st0" d="M120.1,33.3V12.7h4.2l1.9,9.9v-9.9h4v20.6h-4L124.1,23v10.3H120.1z"/>
	</g>
</g>
<g id="앞면-솜씨당-Sample-_-심플">
	<g id="솜씨당로고_오렌지" transform="translate(157.000000, 452.000000)">
		<g id="솜씨당">
			<path id="Combined-Shape" class="st1" d="M-142.1-451.6C-142.1-451.7-142.1-451.7-142.1-451.6c0.4-0.5,1.1-0.5,1.4-0.1l14.4,14.4
				c0.4,0.4,0.4,1,0,1.4c-0.4,0.4-1,0.4-1.4,0l-13.8-13.8l-14,14c-0.4,0.4-1,0.4-1.4,0c-0.4-0.4-0.4-1,0-1.4l14.4-14.4
				C-142.2-451.6-142.2-451.6-142.1-451.6z M-155-418.2h27v-7.7h-27V-418.2z M-156.7-416.5c-0.2-0.2-0.3-0.4-0.3-0.7v-9.6
				c0-0.5,0.4-1,1-1h28.9c0.3,0,0.5,0.1,0.7,0.3c0.2,0.2,0.3,0.4,0.3,0.7v9.6c0,0.3-0.1,0.5-0.3,0.7c-0.2,0.2-0.4,0.3-0.7,0.3H-156
				C-156.2-416.3-156.5-416.4-156.7-416.5z M-140.5-432.6h13.5c0.5,0,1,0.4,1,1c0,0.5-0.4,1-1,1H-156c-0.5,0-1-0.4-1-1
				c0-0.5,0.4-1,1-1h13.5v-3.9c0-0.5,0.4-1,1-1s1,0.4,1,1V-432.6z"/>
			<path id="씨" class="st1" d="M-98.8-435.8c-0.1-0.1-0.1-0.1-0.2-0.2l-8.9-13.2l-3.7,5.5l4.3,6.7c0.3,0.4,0.2,1-0.3,1.3
				c-0.4,0.3-1,0.2-1.3-0.3l-3.9-6l-4,5.9c-0.3,0.4-0.9,0.6-1.3,0.3c-0.4-0.3-0.6-0.9-0.3-1.3l4.5-6.6l-3.6-5.5l-8.6,13.2
				c-0.3,0.4-0.9,0.6-1.3,0.3c-0.4-0.3-0.6-0.9-0.3-1.3l9.3-14.4c0.3-0.4,0.9-0.6,1.3-0.3c0.1,0.1,0.2,0.1,0.2,0.2
				c0.1,0.1,0.1,0.1,0.1,0.2l3.9,6l4.1-6c0.3-0.4,0.9-0.6,1.3-0.3c0.1,0.1,0.2,0.2,0.3,0.4c0,0,0,0.1,0.1,0.1l9.3,13.9h7.4l-8.7-13
				c-0.3-0.4-0.2-1,0.3-1.3s1-0.2,1.3,0.3l9.7,14.4c0.2,0.3,0.2,0.8,0,1.1c-0.2,0.3-0.5,0.5-0.9,0.5h-9.6
				C-98.4-435.5-98.6-435.6-98.8-435.8z"/>
			<path id="Combined-Shape_1_" class="st1" d="M-93.4-432.6C-93.4-432.6-93.3-432.6-93.4-432.6l4.9,0c0.5,0,1,0.4,1,1
				c0,0.5-0.4,1-1,1h-4v8.7c0,0.5-0.4,1-1,1s-1-0.4-1-1v-9.6C-94.5-432.2-94-432.6-93.4-432.6C-93.5-432.6-93.4-432.6-93.4-432.6z
				 M-122.4-432.6h19.3c0.5,0,1,0.4,1,1c0,0.5-0.4,1-1,1h-18.3v7.7h23.1c0.5,0,1,0.4,1,1s-0.4,1-1,1h-24.1c-0.5,0-1-0.4-1-1v-9.6
				C-123.4-432.2-123-432.6-122.4-432.6z"/>
			<path id="Combined-Shape_2_" class="st1" d="M-98.3-406.6c-3.2,0-5.8-2.6-5.8-5.8s2.6-5.8,5.8-5.8s5.8,2.6,5.8,5.8
				S-95.1-406.6-98.3-406.6z M-98.3-408.5c2.1,0,3.9-1.7,3.9-3.9s-1.7-3.9-3.9-3.9c-2.1,0-3.9,1.7-3.9,3.9S-100.5-408.5-98.3-408.5z
				"/>
		</g>
	</g>
</g>
</svg>
