<?xml version="1.0" encoding="utf-8"?>
<!-- Generator: Adobe Illustrator 22.0.1, SVG Export Plug-In . SVG Version: 6.00 Build 0)  -->
<svg version="1.1" id="레이어_1" xmlns="http://www.w3.org/2000/svg" xmlns:xlink="http://www.w3.org/1999/xlink" x="0px"
	 y="0px" viewBox="0 0 303.5 251.4" style="enable-background:new 0 0 303.5 251.4;" xml:space="preserve">
<style type="text/css">
	.st0{fill:#FF6A56;}
	.st1{fill:#FFFFFF;}
	.st2{fill:#4F4F4F;}
</style>
<g id="앞면-솜씨당-Sample-_-심플">
	<g id="솜씨당로고_오렌지" transform="translate(157.000000, 452.000000)">
		<g id="솜씨당">
			<path id="Combined-Shape" d="M-96.9-450.5c0.1-0.1,0.2-0.2,0.3-0.3c1.5-1.5,4-1.5,5.5,0l58.4,58.4c1.5,1.5,1.5,4,0,5.5
				c-1.5,1.5-4,1.5-5.5,0l-55.7-55.7l-56.4,56.4c-1.5,1.5-4,1.5-5.5,0c-1.5-1.5-1.5-4,0-5.5l58.4-58.4
				C-97.3-450.2-97.1-450.4-96.9-450.5z M-148.9-315.3h109.1v-31.2h-109.1V-315.3z M-155.6-308.7c-0.7-0.7-1.1-1.7-1.1-2.8v-39
				c0-2.2,1.7-3.9,3.9-3.9H-36c1.1,0,2,0.4,2.8,1.1s1.1,1.7,1.1,2.8v39c0,1.1-0.4,2-1.1,2.8c-0.7,0.7-1.7,1.1-2.8,1.1h-116.9
				C-153.9-307.5-154.9-308-155.6-308.7z M-90.5-373.8H-36c2.2,0,3.9,1.7,3.9,3.9s-1.7,3.9-3.9,3.9h-116.9c-2.2,0-3.9-1.7-3.9-3.9
				s1.7-3.9,3.9-3.9h54.5v-15.6c0-2.2,1.7-3.9,3.9-3.9s3.9,1.7,3.9,3.9V-373.8z"/>
			<path id="씨" d="M78.2-386.6c-0.3-0.2-0.5-0.5-0.7-0.8l-36.1-53.5l-15.1,22.4l17.5,27c1.2,1.8,0.7,4.2-1.1,5.4
				c-1.8,1.2-4.2,0.7-5.4-1.1l-15.7-24.2l-16.2,24c-1.2,1.8-3.6,2.3-5.4,1.1s-2.3-3.6-1.1-5.4l18-26.7L2.4-440.9l-34.6,53.2
				c-1.2,1.8-3.6,2.3-5.4,1.1s-2.3-3.6-1.1-5.4l37.8-58.2c1.2-1.8,3.6-2.3,5.4-1.1c0.4,0.3,0.7,0.6,1,0.9c0.2,0.2,0.4,0.4,0.6,0.7
				l15.6,24.1L38.2-450c1.2-1.8,3.6-2.3,5.4-1.1c0.6,0.4,1,0.9,1.3,1.5c0.1,0.1,0.2,0.2,0.3,0.4l37.8,56H113l-35.4-52.4
				c-1.2-1.8-0.7-4.2,1.1-5.4c1.8-1.2,4.2-0.7,5.4,1.1l39.2,58.1c0.9,1.4,0.9,3.1,0,4.4c-0.7,1.2-1.9,2.1-3.4,2.1h-39
				C79.8-385.5,78.9-385.9,78.2-386.6z"/>
			<path id="Combined-Shape_1_" d="M100-373.7c0.1,0,0.3,0,0.4,0h19.5c2.2,0,3.9,1.7,3.9,3.9s-1.7,3.9-3.9,3.9h-16.4v35.1
				c0,2.2-1.7,3.9-3.9,3.9c-2.2,0-3.9-1.7-3.9-3.9v-39c0-2.2,1.7-3.9,3.9-3.9C99.8-373.8,99.9-373.8,100-373.7z M-17.2-373.8h77.9
				c2.2,0,3.9,1.7,3.9,3.9s-1.7,3.9-3.9,3.9h-74v31.2h93.5c2.2,0,3.9,1.7,3.9,3.9s-1.7,3.9-3.9,3.9h-97.4c-2.2,0-3.9-1.7-3.9-3.9
				v-39C-21.1-372-19.4-373.8-17.2-373.8z"/>
			<path id="Combined-Shape_2_" d="M80.2-268.6c-12.9,0-23.4-10.5-23.4-23.4s10.5-23.4,23.4-23.4s23.4,10.5,23.4,23.4
				S93.1-268.6,80.2-268.6z M80.2-276.4c8.6,0,15.6-7,15.6-15.6c0-8.6-7-15.6-15.6-15.6s-15.6,7-15.6,15.6
				C64.6-283.3,71.5-276.4,80.2-276.4z"/>
		</g>
		<g id="도장" transform="translate(275.948052, 132.467532)">
			<path id="Rectangle-3" class="st0" d="M-152.5-452.5h18.1c2.8,0,5,2.2,5,5v41.4c0,2.8-2.2,5-5,5h-18.1c-2.8,0-5-2.2-5-5v-41.4
				C-157.5-450.2-155.3-452.5-152.5-452.5z"/>
			<g id="_x3145__x3146__x3137_" transform="translate(3.896104, 7.792208)">
				<path id="_x3137_" class="st1" d="M-155.9-426.8h17c0.5,0,0.9,0.4,0.9,0.9s-0.4,0.9-0.9,0.9H-155v6.1h16.1
					c0.5,0,0.9,0.4,0.9,0.9s-0.4,0.9-0.9,0.9h-17c-0.5,0-0.9-0.4-0.9-0.9v-7.8C-156.7-426.4-156.3-426.8-155.9-426.8z"/>
				<path id="씨_1_" class="st1" d="M-144.5-440c0.3,0,0.7,0.1,0.9,0.4l5.4,8c0.3,0.4,0.2,1.1-0.3,1.4c-0.4,0.3-1.1,0.2-1.4-0.3
					l-4.7-6.9l-1.7,2.6l2.2,3.2c0.3,0.4,0.2,1.1-0.3,1.4s-1.1,0.2-1.4-0.3l-1.7-2.6l-1.7,2.6c-0.3,0.4-0.9,0.6-1.4,0.3
					c-0.4-0.3-0.6-0.9-0.3-1.4l2.2-3.2l-1.7-2.6l-4.6,6.9c-0.3,0.4-0.9,0.6-1.4,0.3c-0.4-0.3-0.6-0.9-0.3-1.4l5.4-8
					c0.2-0.3,0.5-0.4,0.9-0.4c0.3,0,0.7,0.1,0.9,0.4l2,3l2-3C-145.2-439.9-144.8-440-144.5-440z"/>
				<path id="Combined-Shape_3_" class="st1" d="M-148.1-451.5c0.2-0.2,0.5-0.3,0.7-0.3c0.3,0,0.6,0.1,0.8,0.4c0,0,0,0,0,0l8.2,8.3
					c0.4,0.4,0.4,0.9,0,1.3l0,0c-0.4,0.4-0.9,0.4-1.3,0l-7.8-7.8l-7.9,7.8c-0.3,0.3-0.9,0.3-1.2,0c-0.3-0.3-0.3-0.9,0-1.2l8.3-8.4
					C-148.2-451.4-148.1-451.5-148.1-451.5z"/>
			</g>
		</g>
	</g>
</g>
<g>
	<path class="st2" d="M177.8,251.4l4.4-45.1h15.3l4.3,45.1h-8.6l-0.6-7.3H187l-0.5,7.3H177.8z M187.7,237h4.1l-2-22.9h-0.4
		L187.7,237z"/>
	<path class="st2" d="M204.4,206.4h12.4c3.2,0,5.6,0.9,7.2,2.7s2.4,4.4,2.5,7.9l0.1,21.1c0,4.4-0.7,7.8-2.3,10
		c-1.6,2.2-4.2,3.4-7.8,3.4h-12.1V206.4z M215.1,243.5c1.6,0,2.5-0.8,2.5-2.4v-23.2c0-1-0.1-1.8-0.2-2.3c-0.2-0.5-0.4-0.8-0.9-1
		c-0.4-0.2-1.1-0.3-1.9-0.3h-1v29.2H215.1z"/>
	<path class="st2" d="M230.3,251.4v-45.1H244l3.8,27.5l3.8-27.5h13.8v45.1h-8.2V219l-5.2,32.5h-8.1l-5.5-32.5v32.5H230.3z"/>
	<path class="st2" d="M269,251.4v-45.1h8.7v45.1H269z"/>
	<path class="st2" d="M281.3,251.4v-45.1h9.3l4.1,21.6v-21.6h8.7v45.1h-8.8l-4.5-22.6v22.6H281.3z"/>
</g>
</svg>
