<?xml version="1.0" encoding="utf-8"?>
<!-- Generator: Adobe Illustrator 22.0.1, SVG Export Plug-In . SVG Version: 6.00 Build 0)  -->
<svg version="1.1" id="Layer_1" xmlns="http://www.w3.org/2000/svg" xmlns:xlink="http://www.w3.org/1999/xlink" x="0px" y="0px"
	 viewBox="0 0 20 21" style="enable-background:new 0 0 20 21;" xml:space="preserve">
<style type="text/css">
	.st0{fill-rule:evenodd;clip-rule:evenodd;fill:#A6A6A6;}
</style>
<g>
	<path class="st0" d="M10,12c-3.3,0-6-2.7-6-6s2.7-6,6-6s6,2.7,6,6S13.3,12,10,12z M10,2C7.8,2,6,3.8,6,6s1.8,4,4,4s4-1.8,4-4
		S12.2,2,10,2z"/>
	<path class="st0" d="M20,21c0-4.6-3.7-8.7-8.3-8.7H8.3C3.7,12.3,0,16.4,0,21l1.7,0c0-3.9,3.1-7,6.9-7h2.8c3.8,0,6.9,3.1,6.9,7
		L20,21z"/>
</g>
</svg>
